<?xml version="1.0" encoding="utf-8"?>
<!-- Generator: Adobe Illustrator 23.1.0, SVG Export Plug-In . SVG Version: 6.00 Build 0)  -->
<svg version="1.1" id="Layer_1" xmlns="http://www.w3.org/2000/svg" xmlns:xlink="http://www.w3.org/1999/xlink" x="0px" y="0px"
	 viewBox="0 0 74 30.8" enable-background="new 0 0 74 30.8" xml:space="preserve">
<g>
	<defs>
		
			<rect id="SVGID_1_" x="8.2" y="-14.6" transform="matrix(0.6229 -0.7823 0.7823 0.6229 6.9641 32.2217)" width="57.4" height="47"/>
	</defs>
	<clipPath id="SVGID_2_">
		<use xlink:href="#SVGID_1_"  overflow="visible"/>
	</clipPath>
	<g clip-path="url(#SVGID_2_)">
		<path fill-rule="evenodd" clip-rule="evenodd" fill="#E6007E" d="M72.2,0.2c0.3,0.3,0.4,0.6,0.1,1.4c-0.4,1.6-3,3.7-3.2,3.9
			c-1.9,1.7-4.1,3.1-6.3,4.5c-3.2,2-6.7,3.7-10.2,5.3c-3.7,1.6-7.5,3-11.3,4c-3.9,1-7.8,1.7-11.8,1.9c-2.4,0.1-4.8,0.1-7.1,0.1
			C17,21,11.6,19.9,6.3,18c-0.2-0.1-0.2-0.2-0.2-0.4s0.2-0.2,0.4-0.2c5.4,1,10.7,1.3,16.1,1c2.3-0.1,4.5-0.3,6.8-0.5
			c3.8-0.5,7.5-1.2,11.2-2.2c3.6-0.9,7.3-2.1,10.9-3.6c2.8-1.2,5.6-2.4,8.3-3.8c2.7-1.5,5.3-2.9,7.7-4.8l4.4-3.1
			C72,0.2,72.1,0.2,72.2,0.2z"/>
		<path fill-rule="evenodd" clip-rule="evenodd" fill="#E6007E" d="M21.4,27.6c0.9,0.7,1,2.1,0.1,2.8c0,0.1-0.1,0.1-0.2,0.2
			c-0.3,0-0.7-0.1-1.3-0.3c-0.5-0.2-1-0.4-1.6-0.8c-1.5-0.8-3-2.1-3.1-2.2c-2.7-2-6.3-3.9-9.2-6.2c-1.4-1.1-2.7-2.3-3.7-3.6
			c-0.2-0.3-0.4-0.6-0.5-1c-0.1-0.3-0.2-0.6-0.1-0.9c0.1-0.6,0.4-1.3,1-1.7c0.6-0.4,1.9-0.7,2.3-0.8c1.9-0.4,3.7-0.9,5.5-1.5
			c1.7-0.5,3.4-1.1,5.1-1.6c2.6-0.7,5.2-1.4,7.7-2.4c0.4-0.2,0.8,0,1,0.3c0.2,0.4,0,0.8-0.3,1c-2.9,1.7-5.7,3.4-8.7,4.6
			c-2.9,1.2-5.9,2-9.1,2.7c0.6,0.6,1.2,1.2,1.9,1.8c2.9,2.3,6.3,4.2,8.9,6.3L21.4,27.6z"/>
	</g>
</g>
</svg>
