<svg width="385" height="272" viewBox="0 0 385 272" fill="none" xmlns="http://www.w3.org/2000/svg">
<path d="M380.953 152.366C374.021 140.423 360.613 137.8 331.21 136.135C315.297 135.23 293.91 134.85 273.98 135.113C268.761 135.185 263.205 135.167 257.83 135.113C250.134 135.113 243.257 135.113 237.154 135.23L237.4 134.823C239.422 131.457 242.173 127.585 244.823 123.894C252.456 113.218 261.1 101.112 262.276 87.3422C262.33 86.745 262.367 86.1389 262.385 85.5327C264.162 83.2467 265.758 80.8268 267.158 78.2947C267.231 78.159 273.743 66.1441 275.356 55.8481C276.287 56.2215 277.247 56.524 278.225 56.7528C284.795 58.3222 291.724 57.2498 297.502 53.7693C303.28 50.2888 307.44 44.6819 309.076 38.1694L309.167 37.7714C310.259 33.6749 310.535 29.4059 309.978 25.2045C307.946 11.0815 294.584 1.81691 278.953 3.83448C275.52 4.26876 236.006 7.85154 211.904 8.15915H196.119C181.117 8.09582 169.458 8.15915 160.076 9.18151C153.755 2.97498 144.391 -0.282093 134.18 0.658838C127.804 1.23787 114.423 7.50773 103.265 13.2709C102.41 11.9034 101.434 10.6136 100.35 9.41674C96.4051 5.10293 91.196 2.12821 85.4577 0.912166C71.6945 -2.08253 58.5233 2.41404 51.0815 12.6738C46.4361 19.0884 44.2955 26.9687 44.7054 36.0976C45.4797 52.1115 41.4263 59.1956 38.1563 64.8774C35.0593 70.3059 26.8251 84.6641 37.7737 98.9048C38.1836 99.4386 38.5935 99.9543 39.0216 100.434C38.4019 101.902 37.8934 103.414 37.5005 104.957C36.5997 108.942 36.2412 113.029 36.4347 117.108V117.723C36.4017 121.478 37.1226 125.202 38.5551 128.677C39.9877 132.152 42.1033 135.309 44.7783 137.962C46.8182 139.986 49.1478 141.7 51.6918 143.047C51.5187 144.757 51.2455 146.666 51.036 148.059C50.7991 149.724 50.5896 151.163 50.4712 152.583C48.9663 153.327 47.52 154.183 46.1446 155.144C43.0818 152.394 39.384 150.436 35.3781 149.444C27.2532 147.39 18.1718 149.444 11.0762 154.872C7.66202 157.445 4.88796 160.762 2.96766 164.567C1.04736 168.372 0.032073 172.565 0 176.821C0 189.18 7.59664 199.051 17.5889 210.613C20.6583 214.14 23.9372 217.481 27.408 220.62C27.1439 222.212 26.7978 224.049 26.3514 226.121C26.0964 227.315 25.7229 228.762 25.3495 230.219C23.6826 236.724 21.5694 244.812 24.1471 253.335C25.5499 257.967 30.6234 269.041 47.265 271.701C48.5181 271.9 49.7852 272 51.0542 272C61.2468 272 70.7563 265.432 75.3197 255.615C83.1805 259.496 96.6705 265.341 106.517 265.341H107.892C113.021 265.033 122.676 263.45 129.753 256.23C136.311 249.553 137.951 241.257 138.388 235.738C140.984 235.041 143.617 234.245 146.267 233.34C150.912 231.809 155.205 229.38 158.901 226.193C166.58 246.522 184.961 259.017 207.56 259.017C210.302 259.014 213.04 258.83 215.757 258.465C221.207 257.62 226.479 255.887 231.361 253.335C236.434 258.076 243.63 260.781 251.946 260.781C254.06 260.782 256.17 260.618 258.259 260.293C271.202 258.357 280.028 249.698 282.479 236.525V236.371C284.182 227.324 282.743 216.603 281.568 207.98C281.358 206.388 281.03 203.991 280.985 203.294C280.639 199.217 280.073 195.161 279.291 191.143C289.72 190.157 303.183 189.035 315.862 188.429C330.026 187.741 343.106 188.909 350.939 189.614C356.077 190.076 358.9 190.329 361.815 190.121C365.922 189.858 369.894 188.556 373.351 186.339C376.809 184.122 379.639 181.064 381.572 177.454C386.545 168.289 384.332 158.193 380.953 152.366Z" fill="#EC008C"/>
<path d="M369.117 159.141C366.157 154.047 359.617 151.333 330.423 149.686C314.829 148.782 293.797 148.42 274.159 148.682C268.858 148.755 263.229 148.736 257.763 148.682C234.582 148.61 218.887 148.773 209.934 152.527C214.625 145.398 220.964 135.654 225.646 127.873C227.941 124.046 230.847 119.975 233.662 116.039C240.603 106.322 247.78 96.2705 248.646 86.1826C248.791 84.3972 248.791 82.6029 248.646 80.8175C251.14 78.0765 253.321 75.0695 255.149 71.8515C257.554 67.4454 262.063 56.9866 262.108 51.6034C262.2 48.7101 261.653 45.832 260.505 43.1712L276.4 40.855C276.774 41.2076 277.173 41.5341 277.593 41.8322C278.004 42.13 278.443 42.3875 278.905 42.6012L279.961 43.0898C280.455 43.3172 280.971 43.496 281.501 43.6235C283.969 44.2015 286.559 43.9861 288.897 43.0083C290.607 42.3443 292.129 41.2791 293.335 39.9037C294.54 38.5283 295.393 36.8836 295.819 35.1099L295.92 34.6847C296.604 32.2524 296.802 29.7104 296.503 27.2025C295.51 20.435 288.869 16.2642 280.672 17.2956C277.156 17.7389 236.731 21.4121 212.083 21.7016C206.864 21.765 201.381 21.7469 196.07 21.7016C176.997 21.6202 163.051 21.7017 153.76 23.9273C151.365 17.2594 144.296 13.3237 135.434 14.1471C128.839 14.7442 100.329 30.2062 100.037 30.36C97.8786 31.5362 95.738 32.83 93.6612 34.2233C94.4328 30.8557 94.3199 27.3476 93.3333 24.0359C92.6908 21.9895 91.6129 20.1043 90.1726 18.5079C88.1138 16.3094 85.4176 14.8013 82.4576 14.1923C74.1231 12.3828 66.3352 14.8166 62.1361 20.625C59.3306 24.4883 58.0554 29.4824 58.3469 35.4718C59.3397 55.4304 53.7379 65.1474 50.0944 71.6163C47.1978 76.6738 43.2356 83.595 48.6917 90.6973C51.9708 94.9677 55.7964 96.1257 58.6019 97.0305C59.5765 97.3381 60.533 97.6276 61.5805 98.0709C56.2792 98.7676 52.2623 102.595 50.8049 108.267C50.1884 111.086 49.9464 113.972 50.0853 116.853V117.758C50.0481 119.726 50.4113 121.681 51.1532 123.506C51.8951 125.332 53.0004 126.989 54.4028 128.38C57.3276 131.078 61.0219 132.81 64.978 133.338C65.3253 135.465 65.505 137.616 65.5154 139.77C65.449 143.2 65.1262 146.621 64.5499 150.003C63.7895 154.328 63.7895 158.752 64.5499 163.077C58.0918 162.633 52.3989 166.542 49.475 170.857C47.659 173.531 46.1324 176.388 44.9207 179.38C44.4106 178.267 43.9369 177.127 43.4724 176.014C41.1588 170.495 38.5446 164.253 32.0501 162.606C28.0241 161.584 23.2147 162.742 19.4801 165.61C17.7074 166.918 16.2608 168.613 15.2516 170.565C14.2425 172.516 13.6979 174.672 13.6597 176.865C13.6597 183.877 18.4599 190.762 27.9694 201.781C32.1962 206.6 36.8313 211.049 41.8237 215.081C41.4529 219.734 40.7467 224.354 39.7105 228.906C39.3917 230.398 38.9818 232 38.5719 233.547C37.1236 239.165 35.7482 244.476 37.2238 249.344C38.0527 252.058 40.7398 256.844 49.4386 258.228C49.9709 258.32 50.5106 258.362 51.0508 258.355C56.4614 258.355 61.708 254.112 63.6755 247.887C64.3222 245.842 64.5863 243.246 64.9233 238.451C65.0326 237.012 65.1511 235.465 65.2968 233.927C69.168 236.533 72.8206 238.794 76.2272 240.676C84.6528 245.327 99.846 252.085 107.069 251.642C110.23 251.461 116.096 250.556 119.976 246.611C124.412 242.088 124.904 235.872 124.84 230.996C124.815 228.902 124.055 226.883 122.691 225.287C129.168 224.047 135.557 222.39 141.819 220.329C145.206 219.296 148.295 217.471 150.827 215.009C153.025 212.743 154.463 209.858 154.944 206.749H156.712C161.166 206.747 165.58 205.918 169.728 204.306C169.144 209.266 169.546 214.292 170.912 219.098C176.113 235.492 190.131 245.336 207.547 245.336C209.68 245.336 211.81 245.191 213.923 244.901C219.99 244.096 229.754 239.582 234.053 234.388C235.026 233.204 235.903 231.946 236.677 230.625C236.749 233.351 237.14 236.059 237.843 238.695C239.537 244.006 244.783 247.019 251.925 247.019C253.358 247.02 254.79 246.908 256.206 246.684C263.329 245.616 267.637 241.31 269.022 233.873V233.683C270.333 226.743 269.022 217.253 268.02 209.635C267.701 207.3 267.409 205.111 267.337 203.917C267.091 199.954 265.743 192.625 263.857 182.7C263.62 181.497 263.383 180.203 263.147 178.946C274.587 177.706 295.874 175.607 315.175 174.666C330.305 173.924 343.986 175.155 352.157 175.888C356.911 176.313 359.088 176.503 360.81 176.376C362.606 176.295 364.35 175.753 365.872 174.801C367.394 173.85 368.641 172.522 369.49 170.948C372.014 166.478 370.438 161.421 369.117 159.141Z" fill="white"/>
<path d="M158.75 102.864C158.231 100.15 148.093 95.9065 136.889 89.9623C125.257 83.7829 107.058 75.4865 102.34 73.0798C100.187 71.9268 97.9627 70.9085 95.6815 70.0309C93.4408 69.2166 90.9996 68.5652 89.3054 66.81C88.7116 66.2313 88.2759 65.5121 88.0393 64.72C86.7823 60.0063 92.2384 56.885 95.4629 54.7679C100.245 51.6375 105.209 48.7694 110.237 46.0461C115.66 43.0468 121.236 40.3289 126.942 37.9035C128.697 37.1552 130.573 36.7261 132.481 36.6368C134.439 36.5735 134.475 37.1073 136.37 37.433C138.574 37.822 141.781 37.0802 143.183 35.2164C144.586 33.3526 146.645 30.4755 146.371 28.1594C145.779 23.1471 140.405 21.8805 136.16 22.2695C133.646 22.4957 117.524 30.0955 103.98 37.5054C95.7979 42.142 88.3362 47.9323 81.8272 54.6955C81.5995 54.6955 81.7361 46.9418 81.7725 46.3357C82.1551 39.8125 87.4928 32.9907 85.416 26.5218C85.1516 25.5951 84.6921 24.7347 84.0679 23.9976C83.1477 23.0644 81.9622 22.4331 80.6704 22.1881C76.5077 21.2291 71.4979 21.7267 68.82 25.3456C66.8252 28.0599 66.4062 31.7512 66.5701 35.0445C68.3099 71.8494 49.6644 78.5626 55.1752 85.7191C58.3541 89.8718 61.7152 88.1257 69.239 92.957C76.7628 97.7883 80.5884 104.293 82.5286 104.058C86.336 103.506 87.0009 100.358 85.334 88.9671C84.9879 86.6057 85.2156 83.3577 86.6821 81.7292C90.3256 77.7935 96.3464 80.4806 100.974 82.8149C107.924 86.3072 151.071 108.672 154.369 108.672C157.666 108.672 159.26 105.56 158.75 102.864Z" fill="#231F20"/>
<path d="M247.589 43.9987C239.674 45.4825 241.022 63.0706 234.045 70.7881C233.498 70.2181 228.525 60.0307 222.112 54.1589C220.496 52.7336 218.605 51.6498 216.553 50.9732C214.502 50.2966 212.334 50.0415 210.18 50.2233C202.984 50.8747 201.818 59.4336 205.216 65.3144C208.613 71.1952 211.783 72.2176 216.301 75.2666C220.819 78.3155 233.444 82.215 228.835 89.9053C224.226 97.5956 198.566 135.875 196.745 138.671C194.267 142.625 192.017 146.669 190.141 150.107C187.8 154.395 185.331 159 183.109 163.678C181.233 167.604 182.708 176.136 188.41 176.733C190.514 176.95 195.697 176.914 196.262 173.114C196.827 169.314 197.373 167.514 198.266 165.994C200.525 162.158 204.642 162.502 200.68 158.819C199.643 157.98 198.371 157.477 197.036 157.381C197.747 156.16 210.763 136.879 218.642 123.77C226.521 110.66 239.592 96.9894 240.503 85.5354C240.664 83.0561 240.487 80.5664 239.974 78.1346C240.111 77.9898 245.176 73.0861 247.945 68.0105C250.714 62.9349 253.883 54.358 253.911 51.5623C253.938 48.7667 253.401 42.9039 247.589 43.9987Z" fill="#231F20"/>
<path d="M126.722 108.019C125.203 106.9 123.398 106.226 121.512 106.074C118.452 105.983 99.6514 108.933 92.2916 110.598C88.1472 111.502 82.7093 112.688 76.6975 111.231C71.9792 110.091 67.6708 105.558 62.652 106.155C57.6331 106.752 58.2889 114.389 58.2889 117.727C58.2889 125.942 69.3286 125.58 71.4145 125.58C72.9694 130.09 73.7485 134.828 73.719 139.595C73.8192 145.466 72.2616 152.795 72.2161 154.975C72.125 159.327 72.8173 166.013 75.0216 167.108C77.1479 168.048 79.5375 168.224 81.7802 167.605C83.6019 167.162 84.7769 165.154 84.95 162.928C85.4965 156.197 84.3124 143.512 84.6039 139.178C84.8954 134.845 85.0411 127.344 85.1868 125.499C86.5132 125.363 87.7969 124.956 88.9578 124.304C88.9578 124.884 88.384 132.33 88.5662 140.318C88.7757 149.492 90.1693 163.923 91.2259 166.8C91.9546 168.791 95.4797 169.198 95.4797 169.198C97.6657 169.442 100.653 170.211 101.664 168.646C102.493 167.168 102.767 165.447 102.439 163.787C102.029 161.562 101.528 159.327 101.109 157.101C100.471 154.016 99.8154 150.822 99.2871 147.683C98.3762 141.911 98.5675 126.648 100.198 120.64C109.225 115.266 121.758 117.13 123.361 116.614C125.648 115.872 127.797 115.031 127.87 112.579C127.943 110.127 128.28 109.105 126.722 108.019Z" fill="#231F20"/>
<path d="M110.933 190.247C109.946 190.683 108.904 190.987 107.836 191.152C106.716 191.315 104.976 191.541 103.965 190.899C103.218 190.428 103.501 189.406 104.102 188.944C105.068 188.427 106.173 188.221 107.262 188.356C107.836 188.356 112.518 188.555 112.518 189.261C112.518 189.677 111.38 190.066 110.933 190.247ZM146.903 205.067C146.924 204.497 146.847 203.928 146.676 203.384C145.892 201.004 143.442 199.62 141.119 198.679C136.073 196.635 130.717 196.526 125.434 195.576C127.196 193.945 128.459 191.853 129.078 189.541C129.203 188.493 129.112 187.429 128.81 186.417C128.507 185.404 128 184.463 127.32 183.652C123.057 178.802 118.047 178.078 111.671 178.775C105.058 179.49 98.5637 180.802 92.5428 183.724C89.537 185.181 85.939 186.854 85.183 190.446C84.4999 193.721 86.8864 196.662 88.4622 199.304C89.619 201.24 93.2533 208.061 90.8759 209.989C88.8447 211.644 87.5604 214.567 88.4804 217.127C89.0178 218.647 90.0926 219.235 91.295 220.149C92.7432 221.235 93.2442 222.682 94.1824 224.166C94.9795 225.496 96.2071 226.518 97.6647 227.065C99.1223 227.612 100.724 227.652 102.207 227.179C103.328 226.816 104.344 226.189 105.168 225.35C105.991 224.512 106.597 223.488 106.935 222.365C107.599 220.049 110.578 219.579 112.637 219.145C121.672 217.272 130.417 215.752 139.152 212.757C141.307 212.133 143.283 211.01 144.918 209.482C146.101 208.301 146.807 206.73 146.903 205.067ZM105.851 207.039C106.336 206.556 106.986 206.271 107.672 206.243C108.501 206.134 109.321 205.944 110.15 205.791C111.899 205.447 113.675 205.184 115.451 205.013C118.07 204.74 120.716 204.896 123.285 205.474C123.459 205.5 123.619 205.583 123.74 205.709C123.798 205.816 123.817 205.94 123.792 206.06C123.767 206.179 123.7 206.286 123.603 206.361C123.124 206.657 122.592 206.859 122.037 206.958C121.372 207.175 120.716 207.374 120.051 207.573C118.758 207.953 117.464 208.306 116.153 208.604C113.526 209.231 110.845 209.606 108.146 209.726C107.099 209.726 106.06 209.518 105.705 208.414C105.577 208.073 105.577 207.697 105.705 207.356C105.736 207.243 105.786 207.136 105.851 207.039Z" fill="#231F20"/>
<path d="M103.996 233.239C101.774 233.845 95.4251 231.24 91.4719 229.756C87.5874 228.316 83.8559 226.498 80.332 224.328C77.736 222.708 62.9708 211.281 62.9708 211.281C63.7455 206.057 64.9023 200.895 66.4321 195.837C68.9826 187.333 76.3515 181.542 72.8082 176.123C71.821 174.793 70.5743 173.674 69.1424 172.833C67.7104 171.992 66.1227 171.447 64.4738 171.228C61.2675 170.722 57.9519 172.794 56.2122 175.363C54.1003 178.416 52.4722 181.772 51.3846 185.315C50.3826 188.717 50.1276 199.592 50.0183 200.596C46.1179 196.597 42.6863 192.172 39.7892 187.405C35.417 180.167 33.9688 171.455 29.9154 170.432C27.1828 169.754 21.8542 172.242 21.836 176.856C21.8178 181.47 27.0917 188.256 34.1691 196.462C38.9601 201.889 44.2949 206.818 50.0911 211.173C50.0911 211.173 50.665 217.117 47.7502 230.661C46.393 236.849 43.9519 243.391 45.0722 247.009C45.7554 249.262 49.3533 249.986 50.7379 250.212C52.1224 250.438 54.7912 248.801 55.8478 245.462C56.5674 243.191 56.7587 235.23 57.5785 229.249C58.0783 226.136 58.8743 223.076 59.9558 220.112C66.4025 225.051 73.1697 229.563 80.2136 233.619C91.3808 239.781 103.049 243.798 106.629 243.571C109.197 243.418 112.44 242.721 114.143 240.984C116.421 238.668 116.739 234.841 116.685 231.122C116.685 230.217 114.071 228.833 112.24 229.249C108.888 230.055 106.228 232.642 103.996 233.239Z" fill="#231F20"/>
<path d="M288.376 28.3704C288.039 26.0723 285.179 24.9323 281.69 25.3757C278.201 25.819 237.313 29.5465 212.163 29.8994C187.014 30.2522 157.812 28.5785 149.86 34.215C147.228 36.0788 144.75 42.7286 151.518 46.61C158.322 49.2609 174.763 46.9357 177.979 46.7638C178.133 50.9437 184.127 70.2871 185.211 80.3026C186.295 90.3181 183.207 105.518 184.455 109.435C185.366 112.33 190.913 112.276 193.782 111.851C198.901 111.082 199.384 107.635 199.803 105.4C201.279 97.5288 194.529 83.1887 194.21 77.9321C193.8 71.1918 192.461 47.6504 192.525 45.0538C195.021 44.6376 277.974 32.3874 280.633 32.0979C280.673 32.7227 280.848 33.3316 281.147 33.8828C281.446 34.4341 281.861 34.9147 282.364 35.2916L283.421 35.7802C284.213 35.9434 285.036 35.8613 285.78 35.545C286.287 35.3623 286.741 35.0563 287.099 34.6549C287.457 34.2535 287.708 33.7695 287.829 33.2469L287.939 32.8036C288.366 31.3667 288.514 29.8623 288.376 28.3704Z" fill="#231F20"/>
<path d="M229.055 212.115C228.363 211.808 227.579 211.998 226.75 212.957C224.309 215.779 224.446 219.742 221.495 222.23C219.892 223.517 218.027 224.443 216.029 224.944C210.018 226.636 204.516 225.162 200.408 220.529C195.626 215.101 193.741 208.487 195.854 201.53C197.521 196.101 201.702 189.949 208.068 189.994C210.045 189.994 212.085 190.239 213.934 189.56C215.784 188.881 217.359 186.891 216.749 185.036C216.239 183.471 214.508 182.702 212.951 182.159C205.891 179.698 197.393 178.54 190.68 182.557C184.768 186.176 180.797 192.392 179.012 198.942C177.563 204.244 177.063 211.545 178.72 216.793C183.648 232.336 197.721 238.977 212.86 236.959C217.077 236.398 224.929 232.752 227.752 229.341C231.396 224.953 233.126 218.847 230.485 213.744C230.19 213.066 229.691 212.497 229.055 212.115Z" fill="#231F20"/>
<path d="M187.223 145.493C186.941 143.683 187.387 140.462 185.893 139.042C184.682 137.884 180.118 139.757 178.287 140.417C176.457 141.077 172.084 142.416 172.084 142.416C172.084 142.416 167.312 136.282 167.157 128.511C167.047 122.756 168.523 110.352 158.84 114.939C152.738 117.826 149.295 126.312 148.22 133.541C147.145 140.77 147.181 147.447 146.097 153.174C143.456 154.513 136.989 157.698 132.161 159.941C126.55 162.538 120.247 162.23 117.223 164.628C116.385 165.288 115.975 167.279 116.084 168.003C116.303 169.468 120.411 175.132 123.235 175.087C127.716 175.005 132.343 169.785 135.987 167.215C140.896 163.777 148.475 161.235 148.648 161.136H148.739C150.023 160.765 177.222 149.483 179.708 148.469C180.277 149.079 180.998 149.529 181.797 149.773C182.597 150.018 183.447 150.049 184.263 149.863C185.198 149.602 186.01 149.019 186.553 148.219C187.095 147.418 187.333 146.452 187.223 145.493ZM162.028 145.755C161.646 146.289 160.207 146.958 158.44 147.429C157.775 147.61 157.911 144.398 158.03 142.317C158.139 140.39 158.686 136.762 158.941 135.215C158.946 135.187 158.957 135.161 158.973 135.137C158.989 135.114 159.009 135.094 159.033 135.079C159.057 135.064 159.084 135.054 159.112 135.049C159.14 135.044 159.168 135.045 159.196 135.052C159.237 135.059 159.276 135.079 159.307 135.108C159.337 135.137 159.359 135.174 159.369 135.215C159.97 137.336 160.451 139.49 160.808 141.666C161.09 143.041 162.857 144.588 162.028 145.755Z" fill="#231F20"/>
<path d="M136.391 146.118C140.576 137.643 138.228 127.976 131.146 124.526C124.064 121.075 114.93 125.148 110.745 133.622C106.56 142.096 108.908 151.763 115.99 155.214C123.072 158.664 132.206 154.592 136.391 146.118Z" fill="#231F20"/>
<path d="M148.928 54.0892C137.943 52.5873 128.16 57.7081 127.067 65.498C125.974 73.2878 133.999 80.8786 144.984 82.3623C155.969 83.8461 165.761 78.7434 166.845 70.9626C167.928 63.1818 159.913 55.6001 148.928 54.0892ZM146.96 77.1148C145.958 77.1148 145.139 73.134 145.139 68.2303C145.139 63.3266 145.949 59.3367 146.96 59.3367C147.971 59.3367 148.782 63.3175 148.782 68.2303C148.782 73.143 147.971 77.1148 146.96 77.1148Z" fill="#231F20"/>
<path d="M362.018 163.211C358.867 157.782 308.933 156.371 274.274 156.823C249.125 157.149 219.067 155.511 211.115 161.139C208.482 163.012 206.005 169.652 212.773 173.543C219.577 176.194 236.018 173.868 239.188 173.688C239.343 177.876 242.467 196.93 243.551 206.946C244.635 216.961 244.416 232.451 245.664 236.368C246.575 239.254 252.122 239.209 254.991 238.775C260.111 238.006 260.593 234.568 261.012 232.333C262.488 224.453 259.518 209.805 259.191 204.548C258.772 197.808 253.662 174.574 253.725 171.978C254.636 171.833 286.753 168.033 314.808 166.667C337.37 165.572 356.562 168.657 360.251 168.386C363.731 168.15 362.529 164.106 362.018 163.211Z" fill="#231F20"/>
<path d="M178.097 181.745C176.904 174.19 167.312 169.413 156.682 171.069C146.053 172.725 138.392 180.198 139.585 187.753C140.779 195.307 150.37 200.084 161 198.428C171.63 196.773 179.29 189.3 178.097 181.745ZM162.667 187.716L161.328 187.02C160.932 186.822 160.487 186.742 160.046 186.788C159.605 186.835 159.187 187.006 158.841 187.282L157.511 188.413C156.6 188.54 156.6 188.54 156.491 187.644L157.293 186.495C157.551 186.118 157.667 185.661 157.618 185.207C157.57 184.753 157.361 184.331 157.028 184.016L155.535 182.568C155.416 181.664 155.207 181.944 156.109 181.817L158.285 182.722C158.653 182.846 159.043 182.891 159.429 182.853C159.816 182.816 160.19 182.697 160.526 182.505L162.257 181.229C163.013 181.121 162.776 180.985 162.749 181.465C162.722 181.819 162.63 182.166 162.475 182.487L161.92 183.5C161.692 183.913 161.609 184.389 161.683 184.854C161.757 185.32 161.985 185.747 162.33 186.07L163.241 186.974C163.359 187.87 163.559 187.59 162.667 187.716Z" fill="#231F20"/>
</svg>
