<svg width="240" height="66" viewBox="0 0 240 66" fill="none" xmlns="http://www.w3.org/2000/svg">
<path d="M238.826 5.77042C238.826 5.77042 238.826 5.70839 238.826 5.77042C236.728 2.17268 233.271 0.994104 222.592 0.373804C217.407 0.0636536 210.431 -0.0604066 203.95 0.0636535C202.283 0.0636535 200.493 0.0636535 198.765 0.0636535H198.703C188.826 0.00162348 183.086 0.125683 179.32 2.79298C177.962 3.78546 176.604 5.39824 175.863 7.56929C175.184 7.01102 174.382 6.51478 173.58 6.08057C170.925 4.77794 167.777 4.2817 164.629 4.77794C161.789 5.21215 159.197 6.39072 157.221 8.06553C154.259 6.82493 151.481 7.13508 150.308 7.25914C147.839 7.50726 145.678 8.0035 143.765 8.68583C142.098 6.63884 139.629 5.27418 136.851 4.83997C134.32 4.40576 131.789 5.08809 129.691 6.57681C128.765 5.77042 127.654 5.08809 126.172 4.71591C123.518 4.03358 120.555 4.71591 118.209 6.51478C116.481 7.87944 115.308 9.74034 114.814 11.7873C113.518 11.8494 112.16 12.1595 110.863 12.7798C110.493 12.9659 110.123 13.152 109.752 13.4001C109.135 12.4076 108.333 11.6633 107.592 11.105C106.419 10.2366 104.444 9.2441 101.975 9.18207C99.7523 9.12004 92.3449 10.4847 90.6783 10.8569C90.6165 10.8569 90.5548 10.9189 90.4314 10.9189C90.4931 10.2986 90.4931 9.61628 90.3696 8.87192C89.6906 4.15764 85.3079 1.11816 80.2462 1.8005C79.1351 1.92456 66.2338 3.10313 58.3943 3.22719C56.6659 3.22719 54.8758 3.22719 53.2091 3.22719C48.7647 3.22719 44.8141 3.16516 41.4807 3.59937C39.4437 1.55237 36.3573 0.497864 33.0239 0.808014C31.1104 0.932074 26.6042 3.10313 23.1474 4.902C22.9005 4.46779 22.5301 4.03358 22.2215 3.6614C20.9869 2.23471 19.2585 1.30425 17.3449 0.870044C12.8388 -0.184467 8.5795 1.30425 6.11036 4.71591C4.62888 6.82493 3.88814 9.43019 4.07333 12.4697C4.32024 17.7422 3.02394 19.9753 1.91283 21.9603C0.925178 23.7591 -1.79087 28.4734 1.78938 33.1877C3.70296 35.7309 6.11036 36.4753 7.22147 36.8475C7.7153 36.9715 7.83876 37.0336 8.1474 37.2817C8.76468 37.6539 9.25851 38.2121 9.81407 38.8324C10.9869 40.073 13.3943 42.6163 17.3449 41.996C20.5548 41.5618 22.9005 39.7009 23.9499 36.8475C37.1597 43.6087 37.777 43.6088 39.6906 43.6088C41.4807 43.6088 43.2091 43.0505 44.6289 42.058C45.2462 42.6783 45.9869 43.2366 46.7894 43.6088C46.1721 44.6633 45.5548 45.7178 45.061 46.6482C44.2585 48.1369 43.3943 49.7497 42.5919 51.4245C41.1721 54.402 41.3573 58.2478 43.0239 61.2253C44.5054 63.8926 47.098 65.6294 50.061 65.9396C50.4931 66.0016 50.9252 66.0016 51.2956 66.0016C55.9252 66.0016 59.6289 63.1482 60.3696 58.9302C61.7277 57.5035 62.4067 55.8287 62.4684 53.9057C62.4684 53.2854 62.4067 52.6651 62.2832 52.1069C63.7647 49.8738 65.4314 47.2065 66.7277 44.9734C67.4067 43.8569 68.2709 42.6163 69.1351 41.3757C71.7277 37.6539 74.4437 33.87 74.8141 29.3418C74.8141 29.1557 74.8141 28.9697 74.8758 28.7836C75.4314 28.0392 75.9252 27.2948 76.3573 26.5505C76.4807 26.6745 76.6042 26.8606 76.7277 26.9847C77.4067 27.667 78.1474 28.2253 78.9499 28.6595C78.8882 29.2178 78.8264 29.8381 78.7647 30.2723C78.6412 31.0166 78.5795 31.699 78.5178 32.3813C78.3943 39.0185 81.1104 41.8099 83.3943 42.9264C84.8141 43.6708 87.098 44.3531 90.061 43.7328C90.8017 44.043 91.6042 44.229 92.4684 44.3531H92.6536C93.024 44.4151 93.703 44.4772 94.5054 44.4772C95.3079 44.4772 96.1104 44.3531 96.8511 44.167C98.3943 45.4076 100.246 46.276 102.345 46.276H102.407H102.468C106.049 46.214 108.58 44.105 110.061 42.8024C110.246 42.6783 110.493 42.4302 110.617 42.3681C110.617 42.3681 111.296 41.9339 112.962 41.2516C113.518 41.0655 114.505 40.6313 119.999 38.3982L121.049 37.964C121.419 38.026 121.851 38.026 122.221 38.026C122.283 38.3362 122.345 38.6463 122.468 38.9565C122.9 40.5072 124.567 44.167 129.999 45.0354C130.431 45.0975 130.802 45.1595 131.234 45.1595C134.567 45.1595 137.654 42.9884 139.135 39.7629C141.851 41.1275 146.481 43.1125 149.752 42.9264C151.419 42.8024 154.567 42.3061 156.913 39.8869C159.073 37.7159 159.567 34.9866 159.752 33.1257C160.617 32.8776 161.419 32.6294 162.283 32.3193C163.394 31.9471 164.938 31.3268 166.357 30.0242C168.888 36.5994 174.999 40.8174 182.221 40.8174C183.086 40.8174 184.012 40.7554 184.876 40.6313C186.357 40.4452 188.209 39.8249 189.938 38.8945C191.604 40.4452 193.95 41.3136 196.666 41.3136C197.345 41.3136 198.024 41.2516 198.703 41.1275C202.962 40.5072 205.802 37.5918 206.604 33.2497V33.1877C207.16 30.2103 206.666 26.4885 206.296 23.8212C206.234 23.3249 206.11 22.5185 206.11 22.2704C206.049 21.2779 205.863 19.9133 205.555 18.3005C208.95 17.9903 213.333 17.6182 217.407 17.4321C222.036 17.1839 226.296 17.6182 228.826 17.8042C230.493 17.9283 231.419 18.0524 232.345 17.9903C235.123 17.8042 237.53 16.2535 238.826 13.8343C240.678 10.9809 239.938 7.69335 238.826 5.77042Z" fill="#E6007E"/>
<path d="M234.938 8.00192C234.136 6.57523 232.716 5.45869 222.346 4.90042C217.284 4.59026 210.432 4.4662 204.012 4.59026C202.284 4.59026 200.432 4.59026 198.704 4.59026C190 4.59026 184.568 4.65229 181.975 6.5132C180.988 7.19553 179.877 8.74628 180 10.7933C180 11.2895 180.123 11.7237 180.309 12.1579C178.518 12.1579 176.914 12.5921 175.556 13.3985C175.37 13.5226 175.247 13.5846 175.123 13.7087C174.506 12.22 173.333 10.9794 171.728 10.1109C169.938 9.18049 167.716 8.87034 165.494 9.24252C162.099 9.80079 159.383 11.7237 158.272 14.1429C155.926 11.5376 153.148 11.4756 150.988 11.7237C148.086 12.0339 145.864 12.6542 143.889 13.5846L143.827 13.6467C143.21 13.9568 142.346 14.391 141.543 15.0733C141.667 14.1429 141.543 13.0884 140.864 12.0339C139.938 10.6072 138.272 9.55267 136.358 9.24252C134.074 8.87034 132.037 10.235 131.049 11.7237C130.432 12.6542 129.938 13.5846 129.568 14.5771C129.383 14.2049 129.259 13.8327 129.074 13.3985C128.272 11.4756 127.469 9.55267 125.37 8.9944C124.074 8.68425 122.531 9.05643 121.296 9.98688C120.123 10.9173 119.444 12.22 119.444 13.7087C119.444 16.0038 120.988 18.2989 124.074 21.8967C124.63 22.517 125.123 23.0752 125.679 23.6335C123.58 23.6335 120.802 24.688 119.876 25.0602C119.753 24.626 119.63 24.1297 119.63 23.6335C119.63 23.4474 119.63 23.1993 119.63 22.9512C119.63 20.9662 119.691 18.1749 117.531 16.8102C116.667 16.2519 115.185 15.8177 113.086 16.8102C110.802 17.9267 109.506 20.1598 108.827 22.1448C108.21 21.2764 107.407 20.532 106.42 20.0358C106.667 19.4775 106.728 18.9192 106.79 18.547C106.79 18.423 106.79 18.3609 106.79 18.2369C106.852 17.4925 106.914 15.9418 105.309 14.7632C104.63 14.267 103.518 13.6467 102.16 13.6467C100.741 13.5846 94.1975 14.7012 91.9753 15.1974C90.8641 15.4455 89.5061 15.7557 88.0864 15.4455C87.8394 15.3835 87.4073 15.1354 86.9753 14.8873C86.4197 14.5771 85.679 14.2049 84.8765 13.9568C85.432 13.4606 85.8641 12.7782 85.9876 12.0339L86.0493 11.9098C86.1728 11.3515 86.358 10.4831 86.2345 9.42861C85.9259 7.19553 83.7654 5.83087 81.1111 6.20305C79.9382 6.32711 66.7901 7.56771 58.7654 7.62974C57.037 7.62974 55.1851 7.62974 53.5802 7.62974C48.0246 7.62974 43.0864 7.56771 39.8148 8.3741C39.074 6.14102 36.7283 4.83839 33.8271 5.14854C31.4814 5.45869 22.2222 10.5452 22.0987 10.6072C21.358 10.9794 20.6789 11.4136 19.9999 11.9098C20.2469 10.8553 20.2468 9.73876 19.8765 8.49816C19.6296 7.7538 19.3209 7.19553 18.8888 6.69929C18.2715 6.01696 17.4073 5.52072 16.358 5.2726C13.5802 4.65229 11.1728 5.45869 9.75302 7.38162C8.82709 8.62222 8.45672 10.297 8.51845 12.282C8.82709 18.8572 7.0987 21.9587 5.8024 24.1918C4.87648 25.8666 3.58018 28.0997 5.3703 30.4568C6.41969 31.8835 7.65425 32.2557 8.58018 32.5038C9.19746 32.6899 9.75302 32.876 10.6172 33.4343C11.6666 34.1166 12.4073 34.923 13.1481 35.6053C14.1357 36.5978 15.1234 37.7143 16.7901 37.4662C20.9259 36.8459 20.3703 32.4418 19.9999 29.6504C20.3086 29.7745 20.6789 29.9606 21.2345 30.2087C21.5431 30.3948 22.1604 30.7049 22.9012 31.0771C38.2715 39.017 38.8271 39.017 39.8148 39.017C41.0493 39.017 42.1604 38.5207 42.9629 37.5282C43.7654 36.5358 44.1357 35.2331 43.8888 33.9305C43.5802 32.3797 42.4073 31.4493 40.0617 30.2707C43.5802 29.6504 46.1111 27.3553 46.5432 24.3158C46.5432 24.1297 46.6049 23.9436 46.6049 23.6955C46.9135 25.0602 47.1604 26.3008 47.2839 27.2933C47.4691 28.782 47.2839 30.829 47.0987 32.6279C46.9135 35.047 46.7901 36.3497 47.1604 37.4662C47.716 39.203 49.3827 40.1955 51.7283 40.1955C52.1604 40.1955 52.6543 40.1335 53.0864 40.0715C53.8271 39.9474 54.4444 39.7613 54.9999 39.4512C54.5678 40.0715 54.1975 40.6918 53.8271 41.25C52.5308 43.235 51.6666 44.5997 51.4197 44.9098C50.5555 46.2745 49.8148 47.6391 49.1975 48.8177C48.395 50.2444 47.5925 51.8572 46.8518 53.4079C46.0493 55.0207 46.1728 57.3779 47.1604 59.0527C47.9629 60.4173 49.2592 61.3478 50.679 61.4718C50.9259 61.4718 51.2345 61.5339 51.4814 61.5339C54.0123 61.5339 55.8641 60.1692 56.1111 57.9982C56.2345 57.0057 56.358 56.7576 56.4197 56.6335C56.4197 56.5715 56.6049 56.5094 56.6666 56.3854C57.0987 56.0132 58.0864 55.2068 58.0864 53.7801C58.0864 52.8497 57.716 52.1673 57.3456 51.6711C58.8888 49.314 61.2962 45.5921 63.0246 42.7388C63.7654 41.4982 64.6913 40.1335 65.6172 38.8309C67.9629 35.4812 70.1851 32.3177 70.4938 29.0301C70.5555 28.4098 70.5555 27.7895 70.4938 27.2312C71.1728 26.4249 72.037 25.3703 72.5925 24.2538C73.395 22.8271 74.8148 19.3534 74.8765 17.6166C74.8765 16.5 74.8765 16.1899 74.5061 15.4455C76.6666 15.1354 78.1481 14.8873 79.3827 14.7012C79.5061 14.8252 79.6296 14.9493 79.753 15.0113C79.8148 15.0733 79.8765 15.0733 79.9382 15.1354L80.2469 15.2594C79.0123 16.2519 78.6419 17.3685 78.6419 19.9737V20.2839C78.6419 21.6485 79.1357 22.8271 80.0617 23.7576C80.9259 24.626 82.037 25.1222 83.5185 25.3703C83.6419 25.9906 83.7037 26.673 83.7037 27.4794C83.7037 28.5339 83.5185 29.8985 83.395 30.891C83.2716 31.5733 83.2098 32.0696 83.2098 32.4418C83.1481 35.8534 83.9506 38.0245 85.6172 38.8929C86.4197 39.3271 87.8394 39.6993 89.6296 39.2651C89.9999 39.203 90.3703 39.017 90.679 38.8309C91.4197 39.4512 92.3456 39.7613 93.2098 39.8233C93.2716 39.8233 93.395 39.8233 93.5185 39.8854C93.8271 39.9474 94.2592 40.0094 94.6913 40.0094C96.4197 40.0094 97.2839 39.203 97.716 38.4587C97.7777 38.3346 97.8395 38.2726 97.9012 38.1485C98.6419 39.6993 100.37 41.8083 102.531 41.8083H102.593C104.63 41.7463 106.173 40.4436 107.407 39.3891C107.716 39.141 108.025 38.8929 108.272 38.7068C108.704 38.3967 109.691 37.7764 111.667 37.094H111.728C112.099 36.97 113.21 36.5358 118.518 34.3027L118.889 34.1166C119.63 33.8064 120.247 33.5583 120.802 33.3102C121.605 33.5583 122.469 33.6203 123.21 33.3722C124.321 33.0621 126.728 31.5733 127.963 29.9606C127.901 30.2707 127.839 30.5809 127.778 30.953C127.654 31.4493 127.531 31.9455 127.407 32.5038C126.914 34.3647 126.481 36.1015 126.975 37.7143C127.222 38.5827 128.086 40.1955 130.926 40.6297C131.111 40.6297 131.296 40.6918 131.42 40.6918C133.21 40.6918 134.876 39.2651 135.494 37.2801C135.679 36.5978 135.802 35.7294 135.926 34.1786C135.988 33.6824 135.988 33.1861 136.049 32.6899C137.346 33.5583 138.518 34.3027 139.63 34.923C143.025 36.8459 147.531 38.6448 149.691 38.5207C150.741 38.4587 152.654 38.1485 153.889 36.8459C155.309 35.3572 155.494 33.3102 155.494 31.6974C155.494 31.0151 155.247 30.3327 154.753 29.8365C156.79 29.4023 158.889 28.9061 160.988 28.2237C161.852 27.9136 162.963 27.4794 163.889 26.4869C164.63 25.7425 165.062 24.75 165.247 23.7576C166.049 23.8196 166.852 23.7576 167.654 23.6335C168.518 23.5094 169.321 23.2613 170.123 22.9512C169.938 24.5639 170 26.3008 170.494 27.8515C172.16 33.1861 176.728 36.4737 182.407 36.4737C183.086 36.4737 183.765 36.4117 184.444 36.3497C186.42 36.1015 189.568 34.6128 190.988 32.876C191.358 32.4418 191.605 32.0076 191.852 31.5733C191.914 32.8139 192.037 33.6824 192.222 34.3027C192.778 36.0395 194.444 37.032 196.79 37.032C197.222 37.032 197.716 36.97 198.148 36.9079C200.432 36.5358 201.852 35.1711 202.284 32.6899V32.6279C202.716 30.3327 202.284 27.1072 201.975 24.688C201.852 23.9436 201.79 23.1993 201.728 22.8271C201.667 21.4004 201.111 18.6091 200.617 15.8177C200.556 15.4455 200.432 15.0113 200.37 14.5771C203.642 14.2049 210.802 13.4606 217.346 13.1504C222.284 12.9023 226.728 13.3365 229.383 13.5226C230.926 13.6467 231.667 13.7087 232.222 13.7087C233.457 13.6467 234.506 12.9643 235.062 11.9098C235.864 10.4211 235.37 8.74628 234.938 8.00192ZM57.1604 35.9775C57.1604 35.9155 57.1604 35.8534 57.2222 35.7914V35.7294C57.6543 33.4342 56.7901 30.7049 56.0493 28.2858C55.8024 27.5414 55.432 26.3628 55.432 26.0527C55.432 25.8046 55.3703 25.4944 55.3703 25.2463C56.1728 26.1147 56.9753 26.6109 57.716 27.1072C57.9629 27.2312 58.2098 27.4173 58.4567 27.6034C58.8888 27.9136 59.3827 28.1617 59.9382 28.4098C60.2469 28.5959 60.9876 28.9681 61.4814 29.2782C60.679 30.6429 58.9506 33.2482 57.1604 35.9775Z" fill="white"/>
<path d="M103.58 17.0584C103.271 16.8103 102.592 16.4381 101.913 16.4381C100.925 16.4381 94.8144 17.3686 92.407 17.9269C91.0489 18.237 89.2588 18.6092 87.3452 18.113C85.802 17.7408 84.3823 16.2521 82.7773 16.4381C81.1724 16.6242 81.3576 19.1675 81.3576 20.284C81.3576 23.0133 84.9378 22.8893 85.6168 22.8893C86.1107 24.2539 86.3576 25.5566 86.3576 27.4795C86.4193 29.4024 85.8638 31.8216 85.8638 32.566C85.8638 33.9927 86.0489 36.2257 86.7897 36.5359C87.7156 36.9701 88.6415 36.784 89.0119 36.722C89.6292 36.5979 89.9996 35.9156 90.0613 35.1712C90.2465 32.9381 89.8761 28.7821 89.9378 27.3554C90.0613 25.9287 90.0613 23.4475 90.123 22.8272C90.4934 22.8272 90.7403 22.7032 91.3576 22.4551C91.3576 22.6411 91.1724 25.1224 91.2341 27.7276C91.2959 30.7671 91.7279 35.4814 92.0983 36.4739C92.3452 37.1562 93.4563 37.2802 93.4563 37.2802C94.1971 37.3423 95.123 37.5904 95.4934 37.0942C95.8637 36.4739 95.802 35.7295 95.7403 35.4814C95.6168 34.737 95.4316 33.9927 95.3082 33.2483C95.123 32.2558 94.8761 31.2013 94.7526 30.1468C94.444 28.2239 94.5057 23.1994 95.0613 21.2145C98.0242 19.4156 102.098 20.0359 102.592 19.9118C103.333 19.6637 104.012 19.4156 104.074 18.6092C104.012 17.7408 104.074 17.4306 103.58 17.0584Z" fill="black"/>
<path d="M123.271 29.4022C123.209 28.7819 123.333 27.7274 122.839 27.2932C122.469 26.921 120.987 27.5413 120.37 27.7274C119.753 27.9135 118.333 28.4097 118.333 28.4097C118.333 28.4097 116.79 26.3627 116.728 23.8195C116.666 21.8965 117.16 17.8646 114.012 19.3533C112.037 20.2838 110.925 23.0751 110.555 25.4943C110.185 27.8514 110.246 30.0845 109.876 31.9454C109.012 32.3796 106.913 33.4341 105.308 34.1785C103.456 35.0469 101.419 34.9229 100.432 35.7292C100.185 35.9774 99.9996 36.5977 100.061 36.8458C100.123 37.342 101.481 39.2029 102.407 39.2029C103.888 39.2029 105.37 37.4661 106.543 36.5977C108.148 35.4811 110.617 34.6127 110.679 34.6127C111.111 34.4886 119.938 30.7668 120.802 30.4567C121.049 30.7048 121.604 31.139 122.284 30.8909C122.839 30.7048 123.395 30.1465 123.271 29.4022ZM115.123 29.4642C115 29.6503 114.506 29.8364 113.95 30.0225C113.703 30.0845 113.765 29.03 113.827 28.3477C113.888 27.7274 114.012 26.4868 114.135 25.9905C114.135 25.9285 114.259 25.9285 114.259 25.9905C114.444 26.4868 114.629 27.6033 114.753 28.0995C114.814 28.5958 115.37 29.092 115.123 29.4642Z" fill="black"/>
<path d="M100.123 32.6281C97.8394 31.5116 97.0369 28.286 98.395 25.4947C99.753 22.7033 102.716 21.3387 105.062 22.5172C107.346 23.6338 108.148 26.8593 106.79 29.6507C105.432 32.442 102.407 33.7447 100.123 32.6281Z" fill="black"/>
<path d="M70.1236 15.0731C67.531 15.5693 67.9631 21.3381 65.7409 23.8813C65.5557 23.6953 63.9507 20.3456 61.852 18.4227C60.6174 17.2441 58.9507 17.058 57.9631 17.1201C55.6174 17.3062 55.247 20.1595 56.3582 22.0825C57.4693 24.0054 58.5186 24.3776 59.9384 25.3701C61.4199 26.3625 65.494 27.6652 64.0125 30.2084C62.531 32.7516 54.1359 45.3437 53.5804 46.2742C52.7779 47.5768 52.0372 48.8795 51.4199 50.058C50.6791 51.4847 49.8767 52.9734 49.1359 54.5242C48.5186 55.8268 49.0125 58.6182 50.8643 58.8043C51.5433 58.8663 53.2717 58.8663 53.3952 57.6257C53.5804 56.3851 53.7656 55.7648 54.0742 55.2686C54.8149 54.028 56.173 54.09 54.8767 52.9114C54.3828 52.4772 53.7038 52.4152 53.7038 52.4152C53.9507 51.981 58.1483 45.6539 60.7409 41.3118C63.3335 36.9697 67.531 32.5035 67.8396 28.7197C67.9631 27.4791 67.6544 26.3005 67.6544 26.3005C67.7162 26.2385 69.3211 24.6257 70.247 22.9509C71.173 21.2761 72.1606 18.4227 72.1606 17.5543C72.2224 16.6238 72.0372 14.7009 70.1236 15.0731Z" fill="black"/>
<path d="M41.2341 34.4267C41.0489 33.5583 37.7773 32.1316 34.1353 30.1466C30.3699 28.0996 24.444 25.3703 22.9007 24.5639C22.2217 24.1917 21.481 23.8196 20.7403 23.5714C19.9995 23.3233 19.197 23.0752 18.6415 22.5169C18.4563 22.3308 18.2711 22.0827 18.2094 21.8346C17.7773 20.2839 19.5674 19.2293 20.6168 18.547C22.16 17.4925 23.7649 16.5621 25.4316 15.6936C27.2217 14.7011 29.0119 13.8327 30.8637 13.0263C31.4193 12.7782 32.0365 12.6542 32.6538 12.5921C33.2711 12.5921 33.3328 12.7162 33.9501 12.8402C34.6909 12.9643 35.7402 12.7162 36.1723 12.0959C36.6662 11.4756 37.2835 10.5451 37.2217 9.80077C37.0365 8.12596 35.3081 7.75378 33.8884 7.87784C33.0859 7.93987 27.839 10.4831 23.3946 12.9023C19.0119 15.3214 16.2341 18.547 16.1724 18.547C16.1106 18.547 16.1724 16.0038 16.1724 15.8177C16.2958 13.6466 18.0242 11.4136 17.3452 9.30453C17.2217 8.99438 17.0983 8.68423 16.9131 8.49814C16.6045 8.18799 16.2341 8.0019 15.802 7.87784C14.444 7.56769 12.7773 7.75378 11.9131 8.93235C11.2341 9.8628 11.1106 11.0414 11.1724 12.1579C11.7279 24.2538 5.67853 26.4869 7.46865 28.844C8.51803 30.2087 9.62914 29.6504 12.0366 31.2011C14.5057 32.7519 15.7403 34.9229 16.3575 34.8609C17.5921 34.6748 17.839 33.6203 17.2835 29.8985C17.16 29.0921 17.2217 28.0376 17.7156 27.5414C18.8884 26.2387 20.8637 27.1072 22.3452 27.9136C24.6291 29.0921 38.6415 36.4117 39.7526 36.4117C40.8637 36.3496 41.3575 35.3572 41.2341 34.4267Z" fill="black"/>
<path d="M83.4561 9.92468C83.3326 9.18032 82.4067 8.80814 81.2956 8.9322C80.1845 9.05626 66.8512 10.2969 58.6413 10.4209C50.4314 10.545 40.9252 9.98671 38.3326 11.8476C37.4684 12.4679 36.666 14.639 38.8882 15.9416C41.1104 16.81 46.4808 16.0657 47.5302 16.0036C47.5919 17.3683 49.5055 23.7574 49.8758 27.045C50.2462 30.3326 49.1968 35.295 49.5672 36.5976C49.8758 37.5281 51.666 37.5281 52.5919 37.404C54.2586 37.1559 54.4437 36.0393 54.5672 35.295C55.061 32.6897 52.8388 27.9754 52.7771 26.2386C52.6536 24.0055 52.2215 16.2517 52.2215 15.3833C53.024 15.2593 80.061 11.2273 80.9252 11.1033C80.9252 11.4754 81.1721 11.9096 81.4808 12.1578L81.8512 12.3439C82.1598 12.4059 82.4684 12.3439 82.5919 12.2818C83.0857 12.0957 83.2092 11.7236 83.2709 11.5375L83.3326 11.4134C83.3944 10.9792 83.5178 10.4209 83.4561 9.92468Z" fill="black"/>
<path d="M38.0239 18.3607C34.4437 17.8645 31.2338 19.5393 30.9251 22.1445C30.5548 24.6878 33.2091 27.231 36.7893 27.7272C40.3696 28.2235 43.5795 26.5487 43.8881 23.9434C44.1967 21.3381 41.6042 18.8569 38.0239 18.3607ZM37.4066 25.9904C37.098 25.9904 36.7893 24.6878 36.7893 23.075C36.7893 21.4622 37.0362 20.1596 37.4066 20.1596C37.7153 20.1596 38.0239 21.4622 38.0239 23.075C37.9622 24.6257 37.7153 25.9904 37.4066 25.9904Z" fill="black"/>
<path d="M150.864 18.2371C150.494 18.4232 150.185 18.4852 149.876 18.5472C149.506 18.6093 148.95 18.6713 148.642 18.4852C148.395 18.2991 148.518 17.989 148.703 17.8649C148.95 17.6788 149.383 17.6788 149.753 17.6788C149.938 17.6788 151.481 17.7408 151.481 17.989C151.42 18.051 150.987 18.1751 150.864 18.2371ZM162.592 23.0754C162.592 22.8893 162.592 22.7032 162.531 22.5172C162.284 21.7108 161.481 21.2766 160.741 20.9664C159.074 20.2841 157.345 20.2841 155.617 19.9119C156.111 19.4157 156.666 18.6713 156.79 17.9269C156.913 17.3066 156.605 16.4382 156.234 16.004C154.876 14.3912 153.21 14.1431 151.111 14.3912C148.95 14.6393 146.852 15.0735 144.876 16.004C143.889 16.5002 142.716 17.0585 142.469 18.2371C142.222 19.2916 143.024 20.2841 143.518 21.1525C143.889 21.7728 145.062 24.0679 144.321 24.6882C143.642 25.2465 143.271 26.1769 143.518 27.0454C143.704 27.5416 144.074 27.7277 144.444 28.0378C144.938 28.41 145.062 28.8442 145.37 29.3405C145.926 30.2089 146.975 30.6431 147.963 30.333C148.704 30.0848 149.259 29.4645 149.506 28.7202C149.753 27.9758 150.679 27.7897 151.358 27.6657C154.321 27.0454 157.16 26.5491 160 25.5566C160.679 25.3085 161.358 24.9984 161.852 24.5021C162.345 24.192 162.592 23.6337 162.592 23.0754ZM149.197 23.7578C149.321 23.5717 149.568 23.5096 149.815 23.5096C150.062 23.4476 150.37 23.3856 150.617 23.3856C151.173 23.2615 151.79 23.1995 152.345 23.1375C153.21 23.0754 154.074 23.0754 154.876 23.2615C154.938 23.2615 155 23.3235 155 23.3235C155.062 23.3856 155 23.5096 154.938 23.5096C154.815 23.6337 154.568 23.6337 154.444 23.6957C154.259 23.7578 154.012 23.8198 153.827 23.8818C153.395 24.0059 152.963 24.1299 152.531 24.192C151.666 24.3781 150.802 24.5021 149.938 24.5641C149.629 24.5641 149.259 24.5021 149.136 24.1299C149.074 24.0059 149.074 23.8818 149.136 23.7578C149.197 23.8198 149.197 23.7578 149.197 23.7578Z" fill="black"/>
<path d="M148.642 32.38C147.901 32.5661 145.864 31.6977 144.568 31.2015C143.271 30.7052 142.037 30.0849 140.926 29.4026C140.061 28.8443 135.247 25.1225 135.247 25.1225C135.247 25.1225 135.555 22.8274 136.358 20.036C137.16 17.2447 139.568 15.3218 138.456 13.5229C138.024 12.8406 137.037 12.0962 135.74 11.9101C134.691 11.724 133.642 12.4063 133.024 13.2748C132.345 14.3293 131.79 15.3838 131.481 16.5624C131.173 17.6789 131.049 21.2766 131.049 21.5868C131.049 21.5868 129.197 19.7879 127.716 17.2447C126.296 14.8255 125.802 11.9721 124.506 11.662C123.642 11.4139 121.852 12.2203 121.852 13.771C121.852 15.3218 123.58 17.5548 125.864 20.2221C128.21 22.9515 131.049 25.0605 131.049 25.0605C131.049 25.0605 131.234 27.0454 130.308 31.5116C129.876 33.5586 129.074 35.7297 129.444 36.9082C129.691 37.6526 130.864 37.9007 131.296 37.9627C131.79 38.0248 132.592 37.5285 132.963 36.412C133.21 35.6676 133.271 33.0624 133.518 31.0774C133.703 29.7748 134.259 28.162 134.321 28.0379C134.382 28.0379 137.592 30.6432 140.926 32.5041C144.568 34.5511 148.333 35.8537 149.506 35.7917C150.37 35.7297 151.419 35.4815 151.975 34.9233C152.716 34.1789 152.839 32.8763 152.777 31.6977C152.777 31.3875 151.913 30.9533 151.358 31.0774C150.185 31.3255 149.321 32.1939 148.642 32.38Z" fill="black"/>
<path d="M189.32 25.4325C189.073 25.3084 188.826 25.3704 188.579 25.6806C187.777 26.611 187.839 27.9137 186.851 28.7201C186.357 29.1543 185.74 29.4024 185.061 29.5885C183.085 30.1468 181.295 29.6505 179.999 28.1618C178.456 26.3629 177.839 24.1919 178.518 21.8968C179.073 20.0979 180.431 18.0509 182.468 18.1129C183.085 18.1129 183.765 18.175 184.382 17.9889C184.999 17.7407 185.493 17.1204 185.308 16.5001C185.123 16.0039 184.567 15.7558 184.073 15.5697C181.789 14.7633 179.011 14.3911 176.851 15.6938C174.937 16.8723 173.641 18.9193 173.024 21.0904C172.53 22.8272 172.406 25.2464 172.9 26.9832C174.505 32.1317 179.073 34.3028 184.011 33.6204C185.369 33.4344 187.962 32.2558 188.888 31.1392C190.061 29.7125 190.616 27.6656 189.752 25.9907C189.69 25.7426 189.505 25.4945 189.32 25.4325Z" fill="black"/>
<path d="M232.654 9.30473C231.605 7.50586 215.37 7.07165 204.074 7.19571C195.864 7.31977 186.111 6.7615 183.518 8.6224C182.654 9.2427 181.852 11.4138 184.074 12.7164C186.296 13.5848 191.666 12.8404 192.716 12.7784C192.777 14.1431 193.765 20.4081 194.135 23.7577C194.506 27.0453 194.444 32.1318 194.814 33.4344C195.123 34.3649 196.913 34.3649 197.839 34.2408C199.506 33.9927 199.691 32.8762 199.814 32.1318C200.308 29.5265 199.321 24.6882 199.197 22.9514C199.074 20.7183 197.407 13.0886 197.407 12.2201C197.716 12.1581 208.148 10.9175 217.284 10.4833C224.629 10.1111 230.864 11.1656 232.098 11.0416C233.21 10.9175 232.777 9.61488 232.654 9.30473Z" fill="black"/>
<path d="M172.716 15.4459C172.345 12.9647 169.197 11.3519 165.74 11.9102C162.283 12.4684 159.814 14.8876 160.185 17.4308C160.555 19.9121 163.703 21.5248 167.16 20.9666C170.617 20.3463 173.148 17.9271 172.716 15.4459ZM167.716 17.3688L167.283 17.1207C166.975 16.9966 166.728 16.9966 166.481 17.1827L166.049 17.5549C165.74 17.6169 165.74 17.6169 165.74 17.3068L165.987 16.9346C166.172 16.6245 166.111 16.4384 165.925 16.1282L165.432 15.632C165.37 15.3218 165.308 15.4459 165.617 15.3839L166.296 15.694C166.543 15.756 166.79 15.756 167.037 15.632L167.592 15.1978C167.839 15.1357 167.777 15.1357 167.777 15.2598C167.777 15.3839 167.716 15.5079 167.716 15.5699L167.53 15.8801C167.407 16.1902 167.407 16.4384 167.654 16.7485L167.962 17.0587C167.962 17.4308 168.024 17.3688 167.716 17.3688Z" fill="black"/>
</svg>
