<?xml version="1.0" encoding="utf-8"?>
<!-- Generator: Adobe Illustrator 23.1.0, SVG Export Plug-In . SVG Version: 6.00 Build 0)  -->
<svg version="1.1" id="Layer_1" xmlns="http://www.w3.org/2000/svg" xmlns:xlink="http://www.w3.org/1999/xlink" x="0px" y="0px"
	 viewBox="0 0 38.8 38.6" enable-background="new 0 0 38.8 38.6" xml:space="preserve">
<path fill="#FFFFFF" d="M38.3,19.4c0,4.8-1.8,9.6-5.2,13.2c-1.7,1.8-3.8,3.2-6.1,4.2c-2.3,1-4.8,1.4-7.3,1.4c-2.5-0.1-5-0.6-7.3-1.6
	c-2.3-1-4.3-2.4-6.1-4.1c-1.7-1.7-3.1-3.7-4.1-6c-0.9-2.1-1.5-4.6-1.5-7C0.5,14.6,2.5,9.6,6,6.2C7.8,4.4,9.9,3,12.3,2
	c2.3-1,4.8-1.5,7.3-1.5c2.5,0,5,0.5,7.4,1.5c2.3,1,4.4,2.4,6.1,4.2C36.5,9.9,38.3,14.7,38.3,19.4z M38.2,19.4c0-2.4-0.5-4.8-1.5-6.9
	c-1-2.1-2.4-4.1-4.2-5.7c-3.5-3.2-8.1-5-12.8-5S10.3,3.7,6.9,7c-3.4,3.2-5.4,7.8-5.5,12.5c-0.2,4.7,1.7,9.5,5.2,12.7
	c3.4,3.3,8.3,5.1,13,5c4.8-0.1,9.4-1.9,12.9-5.1c1.7-1.6,3.2-3.5,4.2-5.7C37.6,24.2,38.2,21.9,38.2,19.4z"/>
<path fill="#FFFFFF" d="M16.1,14.4c-2.3,0-3.5,0.8-5.8-0.1c-0.8-0.3,0.4-0.7,0.4-0.7s4.5,0,7.3,0c1,0,1.5,0,2.5,0
	c2.6-0.1,5.8,0,6.7-0.7c0.9-0.7,0.9,0.7,0.4,1.4c-0.4,0.7-4.2,0-4.2,0S19,14.4,16.1,14.4z"/>
<path fill="#FFFFFF" d="M16.1,20.4c-2.3,0-3.5,0.8-5.8-0.1c-0.8-0.3,0.4-0.7,0.4-0.7s4.5,0,7.3,0c1,0,1.5,0,2.5,0
	c2.6-0.1,5.8,0,6.7-0.7c0.9-0.7,0.9,0.7,0.4,1.4c-0.4,0.7-4.2,0-4.2,0S19,20.4,16.1,20.4z"/>
<path fill="#FFFFFF" d="M16.1,26.4c-2.3,0-3.5,0.8-5.8-0.1c-0.8-0.3,0.4-0.7,0.4-0.7s4.5,0,7.3,0c1,0,1.5,0,2.5,0
	c2.6-0.1,5.8,0,6.7-0.7c0.9-0.7,0.9,0.7,0.4,1.4c-0.4,0.7-4.2,0-4.2,0S19,26.4,16.1,26.4z"/>
</svg>
