<svg width="322" height="121" viewBox="0 0 322 121" fill="none" xmlns="http://www.w3.org/2000/svg">
<path d="M321.124 119.578H283.926L284 103.009C284 101.61 284 99.7693 284 98.6647V96.8973C284.075 95.2036 284.449 89.6806 284.972 85.704C285.121 84.5994 285.793 80.9174 286.54 76.5727C286.914 74.5844 287.287 72.4488 287.661 70.3869C287.661 70.0187 287.81 69.5768 287.959 69.2823C287.959 69.2086 288.034 69.135 288.109 68.9877C288.183 68.8404 288.258 68.6195 288.333 68.3986C288.333 68.2513 288.258 68.104 288.258 67.9568C288.258 67.7358 288.183 67.4413 288.183 67.3676C288.034 64.1275 289.005 61.0346 289.528 60.5191C290.125 59.93 290.947 60.0036 291.321 60.0036C292.142 60.0773 292.889 60.3718 293.561 60.6664C293.935 60.8137 294.308 61.0346 294.682 61.1819C295.279 61.4764 295.877 61.771 296.475 61.9183C297.371 62.1392 297.969 61.9183 299.089 61.5501C300.209 61.1819 301.479 61.0346 303.048 61.1082C304.542 61.1819 305.737 61.4764 306.783 61.9183C307.53 62.2865 307.828 62.1392 308.874 61.6974L309.397 61.4764C309.77 61.3292 310.144 61.1819 310.517 61.0346C310.891 60.8873 311.264 60.74 311.638 60.5928C312.235 60.3718 312.982 60.0773 313.804 60.0036C314.177 60.0036 314.999 59.93 315.671 60.4455C316.269 61.0346 317.315 63.9802 317.165 67.294C317.165 67.4413 317.165 67.6622 317.091 67.8831C317.091 68.0304 317.016 68.1777 317.016 68.325C317.091 68.4722 317.165 68.6932 317.24 68.8404C317.315 68.9877 317.389 69.135 317.389 69.2086C317.539 69.5768 317.688 69.945 317.763 70.3869C318.659 75.4681 319.854 82.6111 320.228 85.6304C320.975 91.1534 321.273 97.0446 321.273 104.777C321.273 104.998 321.273 106.471 321.199 118.253L321.124 119.578ZM286.391 117.148H318.584C318.584 112.435 318.659 105.145 318.659 104.924C318.659 97.3392 318.36 91.5216 317.613 86.0722C317.24 83.1266 316.045 75.9835 315.148 70.9024C315.148 70.6814 315.074 70.4605 314.924 70.166C314.924 70.0923 314.85 70.0187 314.85 69.945C314.551 69.3559 314.476 69.0614 314.476 68.8404C314.402 68.5459 314.476 68.1777 314.551 67.6622C314.551 67.5149 314.626 67.3676 314.626 67.294C314.7 65.0848 314.252 63.3174 313.953 62.581C313.505 62.6547 312.982 62.802 312.609 63.0229C312.235 63.1702 311.862 63.3174 311.414 63.4647C311.04 63.612 310.741 63.7593 310.368 63.8329L309.92 64.0538C308.725 64.5693 307.604 65.0848 305.812 64.2011C305.065 63.8329 304.243 63.6856 303.048 63.612C301.853 63.5384 300.807 63.6856 299.985 63.9066C298.79 64.3484 297.595 64.7166 295.952 64.3484C295.055 64.1275 294.383 63.7593 293.636 63.4647C293.337 63.3174 292.964 63.1702 292.665 63.0229C292.142 62.7283 291.694 62.581 291.246 62.5074C291.022 63.3174 290.574 65.0848 290.648 67.2204C290.648 67.294 290.648 67.4413 290.723 67.5886C290.798 68.1777 290.872 68.4722 290.798 68.7668C290.723 68.9877 290.648 69.2823 290.35 69.8714C290.275 69.945 290.275 70.0923 290.275 70.0923C290.125 70.3869 290.125 70.6078 290.051 70.8287C289.677 72.8906 289.304 75.0262 288.93 77.0145C288.183 81.2856 287.511 84.9676 287.362 85.9986C286.914 89.8279 286.54 95.2772 286.465 96.8973V98.591C286.465 99.6956 286.465 101.537 286.465 102.936L286.391 117.148Z" fill="#EC008C"/>
<path d="M293.841 96.7199L294.847 94.6999C295.149 93.9399 295.311 93.2999 295.313 92.7599C295.315 91.9799 295.037 91.1999 294.52 90.4199C294.281 90.0599 293.921 89.8199 293.402 89.6799L292.142 89.48C292.183 89.42 292.343 89.22 292.624 88.9C292.885 88.58 293.266 88.12 293.788 87.52C294.47 86.76 294.813 86.06 294.814 85.42C294.815 85.26 294.795 85.16 294.795 85.12C294.717 84.62 294.258 84.36 293.438 84.36C293.078 84.36 292.637 84.42 292.117 84.52L289.535 85.12L289.534 85.56C289.533 85.74 289.593 85.88 289.673 85.96C289.932 86.28 290.251 86.42 290.651 86.42C290.811 86.42 291.152 86.36 291.672 86.24C291.992 86.16 292.292 86.12 292.532 86.12H292.652C292.01 86.98 291.448 87.72 290.966 88.36C290.484 89 290.062 89.52 289.721 89.9399C289.601 90.0999 289.54 90.2599 289.54 90.3799C289.539 90.5599 289.659 90.7399 289.918 90.8999C290.238 91.1399 290.437 91.3199 290.517 91.4199C291.077 91.2999 291.537 91.1999 291.898 91.1199C292.258 91.0599 292.558 91.0199 292.758 91.0199H292.898C293.278 91.0599 293.497 91.3199 293.536 91.7599L293.535 91.9999C293.535 92.1399 293.554 92.2599 293.554 92.3399C293.554 92.4399 293.574 92.5199 293.573 92.5999C293.57 93.6799 293.327 94.6599 292.845 95.5399C292.503 96.1399 291.88 96.9999 290.957 98.1199C290.837 98.2799 290.436 98.5599 289.755 98.9599C289.294 99.2399 289.073 99.5799 289.072 99.9599C289.071 100.12 289.151 100.24 289.291 100.34C289.41 100.44 289.55 100.52 289.71 100.6C289.73 100.6 289.75 100.62 289.75 100.62C289.75 100.64 289.77 100.64 289.81 100.64C289.969 100.72 290.089 100.74 290.169 100.74C290.549 100.74 290.97 100.5 291.412 99.9999C292.013 99.3599 292.495 98.7799 292.897 98.2199C293.298 97.6799 293.6 97.1799 293.841 96.7199ZM303.193 97.5999H303.293C303.513 97.5999 303.673 97.5399 303.773 97.4199C303.874 97.2999 303.934 97.1799 303.954 97.0599L303.965 93.3799C304.085 93.3199 304.145 93.2799 304.125 93.2799C304.105 93.2799 304.125 93.2599 304.165 93.2599C304.205 93.2599 304.305 93.3599 304.465 93.5199C304.624 93.6799 304.784 93.8799 304.983 94.0799C305.162 94.2799 305.342 94.4999 305.541 94.6999C305.741 94.8999 305.88 95.0399 306 95.1199C306.16 95.2399 306.339 95.3799 306.559 95.5399C306.758 95.6999 306.978 95.8399 307.218 95.9599C307.437 96.0999 307.657 96.2199 307.876 96.3199C308.096 96.4199 308.296 96.4799 308.456 96.4799C308.636 96.4599 308.816 96.3799 309.017 96.2399C309.217 96.1199 309.318 95.9599 309.318 95.7999C309.318 95.6999 309.298 95.6399 309.259 95.5999C309.219 95.5599 309.199 95.5199 309.199 95.4399C309.159 95.4399 309.139 95.4199 309.139 95.3999C309.139 95.3999 309.119 95.3799 309.099 95.3399L308.92 95.1999C308.361 94.9399 307.881 94.6599 307.522 94.3599C307.143 94.0799 306.764 93.7399 306.365 93.3799C306.225 93.2599 306.106 93.1399 305.986 92.9799C305.867 92.8199 305.807 92.6599 305.808 92.4599C305.828 92.4199 305.848 92.3799 305.848 92.3599C305.848 92.3399 305.888 92.3199 305.928 92.2799C306.309 91.9799 306.71 91.6799 307.131 91.3999C307.532 91.1199 307.933 90.8199 308.294 90.4799C308.414 90.3799 308.494 90.2599 308.535 90.1399C308.555 90.0199 308.575 89.8999 308.576 89.7799L308.576 89.5599L308.257 89.22C308.137 89.16 308.038 89.1 307.938 89.06C307.818 89.02 307.718 88.98 307.618 88.98C307.438 88.98 307.278 89.02 307.118 89.1C306.957 89.18 306.837 89.28 306.717 89.36C306.597 89.46 306.516 89.54 306.456 89.62C306.396 89.6999 306.376 89.7199 306.416 89.6999C305.995 90.0999 305.634 90.4199 305.353 90.6799C305.072 90.9599 304.832 91.1599 304.651 91.3199C304.451 91.4799 304.31 91.5999 304.23 91.6799C304.13 91.7599 304.07 91.7799 304.05 91.7799L304.05 91.5999C304.031 91.2799 304.012 90.9799 304.013 90.6999C304.014 90.4199 303.994 90.1799 303.995 89.9399C303.996 89.6999 303.977 89.48 303.957 89.26C303.918 89.04 303.879 88.8 303.839 88.54C303.8 88.32 303.66 88.16 303.421 88.04C303.161 87.92 302.901 87.86 302.641 87.86C302.521 87.86 302.421 87.92 302.341 88.04C302.24 88.16 302.18 88.22 302.14 88.26C302.12 88.34 302.12 88.4 302.12 88.46L302.119 88.68C302.118 88.92 302.118 89.14 302.137 89.36C302.156 89.58 302.176 89.7199 302.176 89.7999C302.195 89.9999 302.214 90.1799 302.234 90.3399C302.234 90.4999 302.253 90.6799 302.252 90.8799L302.24 95.1999C302.159 95.5999 302.118 95.9199 302.117 96.1399C302.096 96.3799 302.096 96.5399 302.095 96.6599C302.095 96.7599 302.095 96.8199 302.095 96.8599C302.095 96.8999 302.115 96.9199 302.115 96.9199C302.135 96.9599 302.174 97.0199 302.234 97.0999C302.274 97.1799 302.354 97.2399 302.434 97.3199C302.513 97.3999 302.633 97.4599 302.753 97.5199C302.873 97.5799 303.033 97.5999 303.193 97.5999ZM315.319 95.6599L315.319 95.5199C315.299 95.4999 315.259 95.4399 315.2 95.3399C315.14 95.2599 315.06 95.1999 314.98 95.1999C314.9 95.1999 314.76 95.2399 314.56 95.2999L314.28 95.3799C314.179 95.4199 314.099 95.4199 314.019 95.4199C313.499 95.4199 313.16 95.3599 312.98 95.2399C312.78 95.1199 312.701 94.8999 312.702 94.5999C312.703 94.3599 312.763 94.1199 312.904 93.8399C313.045 93.5799 313.226 93.2999 313.427 92.9799L313.547 92.7999C313.808 92.3799 314.07 91.9199 314.331 91.4399C314.573 90.9599 314.714 90.4199 314.716 89.8599C314.716 89.6999 314.677 89.5 314.617 89.3C314.558 89.1 314.478 88.92 314.399 88.76C314.319 88.6 314.22 88.46 314.1 88.34C313.981 88.22 313.881 88.16 313.801 88.16H313.521C312.861 88.16 312.28 88.26 311.76 88.42C311.239 88.6 310.719 88.84 310.238 89.16L310.158 89.24C310.037 89.34 309.937 89.44 309.817 89.5599C309.696 89.6799 309.656 89.8199 309.655 89.9399C309.655 90.0199 309.675 90.0999 309.735 90.1999C309.774 90.2999 309.834 90.3999 309.914 90.4799C309.974 90.5799 310.053 90.6599 310.133 90.7199C310.213 90.7999 310.273 90.8199 310.353 90.8199C310.433 90.8199 310.493 90.7999 310.573 90.7199C310.633 90.6599 310.714 90.5799 310.794 90.4799C310.874 90.3999 310.954 90.2999 311.075 90.1999C311.175 90.1199 311.315 90.0399 311.475 89.9599C311.676 89.8399 311.876 89.7799 312.036 89.7399C312.196 89.7199 312.296 89.6999 312.336 89.6999C312.476 89.6999 312.576 89.7399 312.656 89.7799C312.716 89.8199 312.776 89.8799 312.835 89.9399C312.895 90.0199 312.935 90.1399 312.975 90.2599C313.014 90.3799 313.034 90.4799 313.034 90.5599C313.034 90.5999 313.013 90.6399 313.013 90.6799C313.013 90.7199 313.013 90.7399 313.013 90.7599L313.013 90.9199C312.952 91.0399 312.872 91.1799 312.751 91.3799C312.631 91.5799 312.51 91.7799 312.369 91.9999L312.289 92.1199C311.968 92.5999 311.686 93.0799 311.425 93.5999C311.143 94.1199 311.022 94.6399 311.02 95.1999C311.019 95.6999 311.217 96.1199 311.636 96.4599C312.055 96.8199 312.635 96.9799 313.355 96.9799C313.515 96.9799 313.715 96.9399 313.955 96.8599C314.175 96.7799 314.396 96.6599 314.596 96.5199C314.797 96.3999 314.957 96.2599 315.097 96.0999C315.238 95.9399 315.318 95.7999 315.319 95.6599Z" fill="#0A0A0A"/>
<path d="M251.727 120.252H202.129L202.229 98.49C202.229 96.6523 202.229 94.2343 202.229 92.7835V90.4622C202.328 88.2376 202.826 80.9835 203.523 75.7605C203.722 74.3097 204.619 69.4736 205.615 63.7671C206.113 61.1556 206.611 58.3507 207.109 55.6425C207.109 55.1589 207.308 54.5785 207.507 54.1917C207.507 54.0949 207.607 53.9982 207.706 53.8048C207.806 53.6113 207.905 53.3212 208.005 53.031C208.005 52.8376 207.905 52.6441 207.905 52.4507C207.905 52.1605 207.806 51.7736 207.806 51.6769C207.607 47.4212 208.901 43.3589 209.598 42.6818C210.395 41.9081 211.491 42.0048 211.989 42.0048C213.084 42.1015 214.08 42.4884 214.977 42.8753C215.474 43.0687 215.972 43.3589 216.47 43.5523C217.267 43.9392 218.064 44.3261 218.861 44.5195C220.056 44.8097 220.853 44.5195 222.346 44.0359C223.84 43.5523 225.533 43.3589 227.625 43.4556C229.617 43.5523 231.21 43.9392 232.605 44.5195C233.601 45.0031 233.999 44.8097 235.393 44.2294L236.09 43.9392C236.588 43.7458 237.086 43.5523 237.584 43.3589C238.082 43.1654 238.58 42.972 239.078 42.7785C239.875 42.4884 240.871 42.1015 241.966 42.0048C242.464 42.0048 243.56 41.9081 244.456 42.5851C245.253 43.3589 246.647 47.2277 246.448 51.5802C246.448 51.7736 246.448 52.0638 246.349 52.354C246.349 52.5474 246.249 52.7408 246.249 52.9343C246.349 53.1277 246.448 53.4179 246.548 53.6113C246.647 53.8048 246.747 53.9982 246.747 54.0949C246.946 54.5785 247.145 55.0622 247.245 55.6425C248.44 62.3162 250.034 71.6982 250.532 75.6638C251.527 82.9179 251.926 90.6556 251.926 100.811C251.926 101.101 251.926 103.036 251.826 118.511L251.727 120.252ZM205.416 117.061H248.34C248.34 110.87 248.44 101.295 248.44 101.005C248.44 91.0425 248.042 83.4015 247.046 76.2441C246.548 72.3753 244.954 62.9933 243.759 56.3195C243.759 56.0294 243.66 55.7392 243.46 55.3523C243.46 55.2556 243.361 55.1589 243.361 55.0622C242.962 54.2884 242.863 53.9015 242.863 53.6113C242.763 53.2244 242.863 52.7408 242.962 52.0638C242.962 51.8703 243.062 51.6769 243.062 51.5802C243.162 48.6785 242.564 46.3572 242.166 45.39C241.568 45.4867 240.871 45.6802 240.373 45.9703C239.875 46.1638 239.377 46.3572 238.779 46.5507C238.281 46.7441 237.883 46.9376 237.385 47.0343L236.788 47.3244C235.194 48.0015 233.7 48.6785 231.31 47.5179C230.314 47.0343 229.218 46.8408 227.625 46.7441C226.031 46.6474 224.637 46.8408 223.542 47.131C221.948 47.7113 220.355 48.1949 218.164 47.7113C216.968 47.4212 216.072 46.9376 215.076 46.5507C214.678 46.3572 214.18 46.1638 213.781 45.9703C213.084 45.5835 212.487 45.39 211.889 45.2933C211.59 46.3572 210.993 48.6785 211.092 51.4835C211.092 51.5802 211.092 51.7736 211.192 51.9671C211.292 52.7408 211.391 53.1277 211.292 53.5146C211.192 53.8048 211.092 54.1917 210.694 54.9654C210.594 55.0622 210.594 55.2556 210.594 55.2556C210.395 55.6425 210.395 55.9326 210.296 56.2228C209.798 58.931 209.3 61.7359 208.802 64.3474C207.806 69.9572 206.909 74.7933 206.71 76.1474C206.113 81.1769 205.615 88.3343 205.515 90.4622V92.6867C205.515 94.1376 205.515 96.5556 205.515 98.3933L205.416 117.061Z" fill="#EC008C"/>
<path d="M215.715 91.0399L215.715 91.1599C215.714 91.3999 215.833 91.5799 216.073 91.6999C216.153 91.7399 216.253 91.7799 216.333 91.8199C216.413 91.8599 216.512 91.9199 216.612 91.9599C216.712 92.0399 216.812 92.0599 216.912 92.0599C217.132 92.0599 217.372 91.9399 217.613 91.6599C219.018 90.1399 219.743 88.1599 219.751 85.7199C219.751 85.4399 219.732 85.1399 219.713 84.8399C219.694 84.5599 219.655 84.2599 219.616 83.9599C219.419 82.7799 218.322 81.8999 216.344 81.2999C216.426 80.46 216.729 79.4 217.253 78.12C217.614 77.92 218.334 77.68 219.455 77.42C220.396 77.2 221.076 76.9 221.518 76.54C221.518 76.52 221.538 76.46 221.538 76.34C221.539 76.2 221.479 76.04 221.38 75.84C221.1 75.62 220.801 75.5 220.481 75.5C220.241 75.5 219.86 75.6 219.3 75.78C218.819 75.96 218.439 76.04 218.159 76.04C218.019 76.04 217.859 76.02 217.699 75.94C217.62 75.64 217.361 75.48 216.941 75.48C216.621 75.48 216.44 75.58 216.36 75.78C215.272 78.46 214.706 80.5599 214.661 82.0399C214.66 82.3599 214.94 82.6199 215.499 82.8199C215.579 82.8599 215.979 82.8999 216.699 82.9399C217.179 82.9799 217.518 83.1599 217.677 83.4799C217.995 84.1199 218.153 84.8599 218.151 85.6799C218.146 87.1199 217.743 88.4599 216.959 89.7199C216.798 89.9799 216.497 90.2199 216.077 90.4399C215.836 90.5599 215.716 90.7599 215.715 91.0399ZM228.355 88.5999H228.455C228.675 88.5999 228.835 88.5399 228.935 88.4199C229.036 88.2999 229.096 88.1799 229.116 88.0599L229.127 84.3799C229.247 84.3199 229.307 84.2799 229.287 84.2799C229.267 84.2799 229.288 84.2599 229.328 84.2599C229.368 84.2599 229.467 84.3599 229.627 84.5199C229.786 84.6799 229.946 84.8799 230.145 85.0799C230.325 85.2799 230.504 85.4999 230.703 85.6999C230.903 85.8999 231.042 86.0399 231.162 86.1199C231.322 86.2399 231.501 86.3799 231.721 86.5399C231.92 86.6999 232.14 86.8399 232.38 86.9599C232.599 87.0999 232.819 87.2199 233.039 87.3199C233.258 87.4199 233.458 87.4799 233.618 87.4799C233.798 87.4599 233.978 87.3799 234.179 87.2399C234.379 87.1199 234.48 86.9599 234.48 86.7999C234.48 86.6999 234.461 86.6399 234.421 86.5999C234.381 86.5599 234.361 86.5199 234.361 86.4399C234.321 86.4399 234.301 86.4199 234.301 86.3999C234.301 86.3999 234.281 86.3799 234.261 86.3399L234.082 86.1999C233.523 85.9399 233.043 85.6599 232.684 85.3599C232.305 85.0799 231.926 84.7399 231.527 84.3799C231.388 84.2599 231.268 84.1399 231.148 83.9799C231.029 83.8199 230.969 83.6599 230.97 83.4599C230.99 83.4199 231.01 83.3799 231.01 83.3599C231.01 83.3399 231.05 83.3199 231.09 83.2799C231.471 82.9799 231.872 82.6799 232.293 82.3999C232.694 82.1199 233.095 81.8199 233.456 81.4799C233.576 81.3799 233.656 81.2599 233.697 81.1399C233.717 81.0199 233.737 80.8999 233.738 80.7799L233.738 80.5599L233.419 80.22C233.3 80.16 233.2 80.1 233.1 80.06C232.98 80.02 232.88 79.98 232.78 79.98C232.6 79.98 232.44 80.02 232.28 80.1C232.12 80.18 231.999 80.28 231.879 80.36C231.759 80.46 231.678 80.54 231.618 80.62C231.558 80.6999 231.538 80.7199 231.578 80.6999C231.157 81.0999 230.796 81.4199 230.515 81.6799C230.234 81.9599 229.994 82.1599 229.813 82.3199C229.613 82.4799 229.472 82.5999 229.392 82.6799C229.292 82.7599 229.232 82.7799 229.212 82.7799L229.212 82.5999C229.193 82.2799 229.174 81.9799 229.175 81.6999C229.176 81.4199 229.157 81.1799 229.157 80.9399C229.158 80.6999 229.139 80.48 229.119 80.26C229.08 80.04 229.041 79.8 229.001 79.54C228.962 79.32 228.823 79.16 228.583 79.04C228.323 78.92 228.063 78.86 227.803 78.86C227.683 78.86 227.583 78.92 227.503 79.04C227.403 79.16 227.342 79.22 227.302 79.26C227.282 79.34 227.282 79.4 227.282 79.46L227.281 79.68C227.28 79.92 227.28 80.14 227.299 80.36C227.318 80.58 227.338 80.7199 227.338 80.7999C227.357 80.9999 227.377 81.1799 227.396 81.3399C227.396 81.4999 227.415 81.6799 227.415 81.8799L227.402 86.1999C227.321 86.5999 227.28 86.9199 227.279 87.1399C227.258 87.3799 227.258 87.5399 227.258 87.6599C227.257 87.7599 227.257 87.8199 227.257 87.8599C227.257 87.8999 227.277 87.9199 227.277 87.9199C227.297 87.9599 227.337 88.0199 227.396 88.0999C227.436 88.1799 227.516 88.2399 227.596 88.3199C227.675 88.3999 227.795 88.4599 227.915 88.5199C228.035 88.5799 228.195 88.5999 228.355 88.5999ZM240.481 86.6599L240.481 86.5199C240.461 86.4999 240.421 86.4399 240.362 86.3399C240.302 86.2599 240.222 86.1999 240.142 86.1999C240.062 86.1999 239.922 86.2399 239.722 86.2999L239.442 86.3799C239.342 86.4199 239.262 86.4199 239.182 86.4199C238.662 86.4199 238.322 86.3599 238.142 86.2399C237.942 86.1199 237.863 85.8999 237.864 85.5999C237.865 85.3599 237.925 85.1199 238.066 84.8399C238.207 84.5799 238.388 84.2999 238.589 83.9799L238.709 83.7999C238.97 83.3799 239.232 82.9199 239.493 82.4399C239.735 81.9599 239.876 81.4199 239.878 80.8599C239.878 80.6999 239.839 80.5 239.779 80.3C239.72 80.1 239.641 79.92 239.561 79.76C239.482 79.6 239.382 79.46 239.262 79.34C239.143 79.22 239.043 79.16 238.963 79.16H238.683C238.023 79.16 237.443 79.26 236.922 79.42C236.402 79.6 235.881 79.84 235.4 80.16L235.32 80.24C235.199 80.34 235.099 80.44 234.979 80.5599C234.858 80.6799 234.818 80.8199 234.818 80.9399C234.817 81.0199 234.837 81.0999 234.897 81.1999C234.937 81.2999 234.996 81.3999 235.076 81.4799C235.136 81.5799 235.215 81.6599 235.295 81.7199C235.375 81.7999 235.435 81.8199 235.515 81.8199C235.595 81.8199 235.655 81.7999 235.735 81.7199C235.795 81.6599 235.876 81.5799 235.956 81.4799C236.036 81.3999 236.117 81.2999 236.237 81.1999C236.337 81.1199 236.477 81.0399 236.638 80.9599C236.838 80.8399 237.038 80.7799 237.198 80.7399C237.358 80.7199 237.458 80.6999 237.498 80.6999C237.638 80.6999 237.738 80.7399 237.818 80.7799C237.878 80.8199 237.938 80.8799 237.998 80.9399C238.057 81.0199 238.097 81.1399 238.137 81.2599C238.176 81.3799 238.196 81.4799 238.196 81.5599C238.196 81.5999 238.176 81.6399 238.175 81.6799C238.175 81.7199 238.175 81.7399 238.175 81.7599L238.175 81.9199C238.114 82.0399 238.034 82.1799 237.913 82.3799C237.793 82.5799 237.672 82.7799 237.532 82.9999L237.451 83.1199C237.13 83.5999 236.848 84.0799 236.587 84.5999C236.305 85.1199 236.184 85.6399 236.182 86.1999C236.181 86.6999 236.379 87.1199 236.798 87.4599C237.217 87.8199 237.797 87.9799 238.517 87.9799C238.677 87.9799 238.877 87.9399 239.117 87.8599C239.338 87.7799 239.558 87.6599 239.758 87.5199C239.959 87.3999 240.119 87.2599 240.26 87.0999C240.4 86.9399 240.48 86.7999 240.481 86.6599Z" fill="#0A0A0A"/>
<path d="M169.883 119.594H107L107.126 91.8964C107.126 89.5575 107.126 86.48 107.126 84.6335V81.6791C107.253 78.8478 107.884 69.6153 108.768 62.9679C109.02 61.1214 110.157 54.9664 111.419 47.7035C112.051 44.3798 112.682 40.8099 113.314 37.3632C113.314 36.7477 113.566 36.0091 113.819 35.5167C113.819 35.3936 113.945 35.2705 114.071 35.0243C114.197 34.7781 114.324 34.4088 114.45 34.0395C114.45 33.7933 114.324 33.5471 114.324 33.3009C114.324 32.9316 114.197 32.4392 114.197 32.3161C113.945 26.8997 115.586 21.7295 116.47 20.8678C117.48 19.883 118.869 20.0061 119.501 20.0061C120.89 20.1292 122.152 20.6216 123.289 21.114C123.92 21.3602 124.552 21.7295 125.183 21.9757C126.193 22.4681 127.203 22.9605 128.213 23.2067C129.729 23.576 130.739 23.2067 132.633 22.5912C134.527 21.9757 136.674 21.7295 139.325 21.8526C141.851 21.9757 143.871 22.4681 145.639 23.2067C146.902 23.8222 147.407 23.576 149.174 22.8374L150.058 22.4681C150.69 22.2219 151.321 21.9757 151.952 21.7295C152.584 21.4833 153.215 21.2371 153.846 20.9909C154.857 20.6216 156.119 20.1292 157.508 20.0061C158.14 20.0061 159.529 19.883 160.665 20.7447C161.675 21.7295 163.443 26.6535 163.19 32.193C163.19 32.4392 163.19 32.8085 163.064 33.1778C163.064 33.424 162.938 33.6702 162.938 33.9164C163.064 34.1626 163.19 34.5319 163.317 34.7781C163.443 35.0243 163.569 35.2705 163.569 35.3936C163.822 36.0091 164.074 36.6246 164.201 37.3632C165.716 45.857 167.736 57.7977 168.368 62.8448C169.63 72.0773 170.135 81.9253 170.135 94.8508C170.135 95.2201 170.135 97.6821 170.009 117.378L169.883 119.594ZM111.167 115.532H165.59C165.59 107.653 165.716 95.4663 165.716 95.097C165.716 82.4177 165.211 72.6928 163.948 63.5834C163.317 58.6594 161.296 46.7187 159.781 38.2249C159.781 37.8556 159.655 37.4863 159.402 36.9939C159.402 36.8708 159.276 36.7477 159.276 36.6246C158.771 35.6398 158.645 35.1474 158.645 34.7781C158.518 34.2857 158.645 33.6702 158.771 32.8085C158.771 32.5623 158.897 32.3161 158.897 32.193C159.024 28.5 158.266 25.5456 157.761 24.3146C157.003 24.4377 156.119 24.6839 155.488 25.0532C154.857 25.2994 154.225 25.5456 153.468 25.7918C152.836 26.038 152.331 26.2842 151.7 26.4073L150.942 26.7766C148.922 27.6383 147.028 28.5 143.997 27.0228C142.735 26.4073 141.346 26.1611 139.325 26.038C137.305 25.9149 135.537 26.1611 134.148 26.5304C132.128 27.269 130.108 27.8845 127.33 27.269C125.814 26.8997 124.678 26.2842 123.415 25.7918C122.91 25.5456 122.279 25.2994 121.774 25.0532C120.89 24.5608 120.132 24.3146 119.375 24.1915C118.996 25.5456 118.238 28.5 118.364 32.0699C118.364 32.193 118.364 32.4392 118.491 32.6854C118.617 33.6702 118.743 34.1626 118.617 34.655C118.491 35.0243 118.364 35.5167 117.859 36.5015C117.733 36.6246 117.733 36.8708 117.733 36.8708C117.48 37.3632 117.48 37.7325 117.354 38.1018C116.723 41.5485 116.091 45.1184 115.46 48.4421C114.197 55.5819 113.061 61.7369 112.808 63.4603C112.051 69.8615 111.419 78.9709 111.293 81.6791V84.5104C111.293 86.3569 111.293 89.4344 111.293 91.7733L111.167 115.532Z" fill="#EC008C"/>
<path d="M125.441 74.6399L125.442 74.5599C125.422 74.3199 125.403 74.0799 125.404 73.8199C125.405 73.5599 125.405 73.2999 125.406 73.0199C125.407 72.6399 125.409 72.1199 125.451 71.4599C125.473 70.7999 125.515 69.9999 125.578 69.0599C125.662 67.6599 125.705 66.5 125.708 65.6L125.709 65.1C125.674 63.54 125.296 62.76 124.576 62.76C124.456 62.76 124.296 62.8 124.076 62.86C123.956 62.9 123.876 62.98 123.795 63.1C123.715 63.22 123.675 63.32 123.674 63.4C123.673 63.76 123.692 64.12 123.771 64.52C123.83 64.92 123.869 65.32 123.868 65.74C123.866 66.42 123.802 67.46 123.678 68.8199C123.554 70.2199 123.491 71.2399 123.489 71.8999C123.488 72.4199 123.507 72.8799 123.545 73.3199C123.584 73.7599 123.643 74.1599 123.742 74.5199C123.821 74.8799 124.26 75.0599 125.08 75.0599C125.32 75.0599 125.441 74.9199 125.441 74.6399ZM130.07 73.9599H130.21C130.97 73.9599 131.731 73.5199 132.514 72.6199C133.537 71.4399 134.061 70.0999 134.066 68.6199C134.066 68.3599 134.047 68.0999 134.008 67.8199C133.949 67.48 133.89 67.12 133.831 66.76C133.772 66.4 133.653 66.06 133.474 65.74C133.235 65.34 132.936 64.98 132.537 64.64C132.178 64.36 131.779 64.22 131.299 64.22C130.559 64.22 129.918 64.46 129.397 64.9C129.016 65.2 128.674 65.76 128.352 66.58C127.848 67.8199 127.604 69.0399 127.601 70.1999C127.597 71.4199 127.895 72.3999 128.492 73.1199C128.911 73.6399 129.43 73.9199 130.07 73.9599ZM132.151 66.66C132.19 66.98 132.269 67.32 132.348 67.6399C132.428 67.9599 132.467 68.2999 132.466 68.6199C132.462 69.7599 131.939 70.8799 130.916 71.9799C130.575 72.3599 130.334 72.5399 130.214 72.5399C130.114 72.5399 130.034 72.4999 129.975 72.3799C129.517 71.6999 129.299 70.8799 129.302 69.9199C129.306 68.3199 129.81 67 130.833 65.94C130.974 65.8 131.094 65.72 131.214 65.72C131.294 65.72 131.434 65.78 131.634 65.88C131.873 66.04 132.052 66.3 132.151 66.66ZM141.906 75.5999H142.006C142.226 75.5999 142.386 75.5399 142.486 75.4199C142.586 75.2999 142.647 75.1799 142.667 75.0599L142.678 71.3799C142.798 71.3199 142.858 71.2799 142.838 71.2799C142.818 71.2799 142.838 71.2599 142.878 71.2599C142.918 71.2599 143.018 71.3599 143.178 71.5199C143.337 71.6799 143.497 71.8799 143.696 72.0799C143.875 72.2799 144.055 72.4999 144.254 72.6999C144.454 72.8999 144.593 73.0399 144.713 73.1199C144.873 73.2399 145.052 73.3799 145.272 73.5399C145.471 73.6999 145.691 73.8399 145.93 73.9599C146.15 74.0999 146.37 74.2199 146.589 74.3199C146.809 74.4199 147.009 74.4799 147.169 74.4799C147.349 74.4599 147.529 74.3799 147.73 74.2399C147.93 74.1199 148.03 73.9599 148.031 73.7999C148.031 73.6999 148.011 73.6399 147.971 73.5999C147.932 73.5599 147.912 73.5199 147.912 73.4399C147.872 73.4399 147.852 73.4199 147.852 73.3999C147.852 73.3999 147.832 73.3799 147.812 73.3399L147.633 73.1999C147.073 72.9399 146.594 72.6599 146.235 72.3599C145.856 72.0799 145.477 71.7399 145.078 71.3799C144.938 71.2599 144.819 71.1399 144.699 70.9799C144.58 70.8199 144.52 70.6599 144.521 70.4599C144.541 70.4199 144.561 70.3799 144.561 70.3599C144.561 70.3399 144.601 70.3199 144.641 70.2799C145.022 69.9799 145.423 69.6799 145.844 69.3999C146.245 69.1199 146.645 68.8199 147.006 68.4799C147.127 68.3799 147.207 68.2599 147.247 68.1399C147.268 68.0199 147.288 67.8999 147.289 67.7799L147.289 67.5599L146.97 67.22C146.85 67.16 146.751 67.1 146.651 67.06C146.531 67.02 146.431 66.98 146.331 66.98C146.151 66.98 145.991 67.02 145.831 67.1C145.67 67.18 145.55 67.28 145.43 67.36C145.309 67.46 145.229 67.54 145.169 67.62C145.109 67.6999 145.089 67.7199 145.129 67.6999C144.708 68.0999 144.347 68.4199 144.066 68.6799C143.785 68.9599 143.544 69.1599 143.364 69.3199C143.164 69.4799 143.023 69.5999 142.943 69.6799C142.843 69.7599 142.783 69.7799 142.763 69.7799L142.763 69.5999C142.744 69.2799 142.725 68.9799 142.726 68.6999C142.727 68.4199 142.707 68.1799 142.708 67.9399C142.709 67.6999 142.689 67.48 142.67 67.26C142.631 67.04 142.591 66.8 142.552 66.54C142.513 66.32 142.373 66.16 142.134 66.04C141.874 65.92 141.614 65.86 141.354 65.86C141.234 65.86 141.134 65.92 141.054 66.04C140.953 66.16 140.893 66.22 140.853 66.26C140.833 66.34 140.833 66.4 140.832 66.46L140.832 66.68C140.831 66.92 140.83 67.14 140.85 67.36C140.869 67.58 140.889 67.7199 140.888 67.7999C140.908 67.9999 140.927 68.1799 140.947 68.3399C140.946 68.4999 140.966 68.6799 140.965 68.8799L140.953 73.1999C140.871 73.5999 140.831 73.9199 140.83 74.1399C140.809 74.3799 140.809 74.5399 140.808 74.6599C140.808 74.7599 140.808 74.8199 140.808 74.8599C140.808 74.8999 140.828 74.9199 140.828 74.9199C140.847 74.9599 140.887 75.0199 140.947 75.0999C140.987 75.1799 141.067 75.2399 141.146 75.3199C141.226 75.3999 141.346 75.4599 141.466 75.5199C141.586 75.5799 141.746 75.5999 141.906 75.5999ZM154.032 73.6599L154.032 73.5199C154.012 73.4999 153.972 73.4399 153.913 73.3399C153.853 73.2599 153.773 73.1999 153.693 73.1999C153.613 73.1999 153.473 73.2399 153.273 73.2999L152.992 73.3799C152.892 73.4199 152.812 73.4199 152.732 73.4199C152.212 73.4199 151.872 73.3599 151.693 73.2399C151.493 73.1199 151.414 72.8999 151.415 72.5999C151.415 72.3599 151.476 72.1199 151.617 71.8399C151.758 71.5799 151.939 71.2999 152.139 70.9799L152.26 70.7999C152.521 70.3799 152.783 69.9199 153.044 69.4399C153.285 68.9599 153.427 68.4199 153.429 67.8599C153.429 67.6999 153.39 67.5 153.33 67.3C153.271 67.1 153.191 66.92 153.112 66.76C153.032 66.6 152.933 66.46 152.813 66.34C152.693 66.22 152.594 66.16 152.514 66.16H152.234C151.574 66.16 150.993 66.26 150.473 66.42C149.952 66.6 149.432 66.84 148.951 67.16L148.87 67.24C148.75 67.34 148.65 67.44 148.53 67.5599C148.409 67.6799 148.369 67.8199 148.368 67.9399C148.368 68.0199 148.388 68.0999 148.448 68.1999C148.487 68.2999 148.547 68.3999 148.627 68.4799C148.687 68.5799 148.766 68.6599 148.846 68.7199C148.926 68.7999 148.986 68.8199 149.066 68.8199C149.146 68.8199 149.206 68.7999 149.286 68.7199C149.346 68.6599 149.427 68.5799 149.507 68.4799C149.587 68.3999 149.667 68.2999 149.788 68.1999C149.888 68.1199 150.028 68.0399 150.188 67.9599C150.389 67.8399 150.589 67.7799 150.749 67.7399C150.909 67.7199 151.009 67.6999 151.049 67.6999C151.189 67.6999 151.289 67.7399 151.369 67.7799C151.429 67.8199 151.489 67.8799 151.548 67.9399C151.608 68.0199 151.648 68.1399 151.687 68.2599C151.727 68.3799 151.747 68.4799 151.747 68.5599C151.746 68.5999 151.726 68.6399 151.726 68.6799C151.726 68.7199 151.726 68.7399 151.726 68.7599L151.726 68.9199C151.665 69.0399 151.585 69.1799 151.464 69.3799C151.344 69.5799 151.223 69.7799 151.082 69.9999L151.002 70.1199C150.681 70.5999 150.399 71.0799 150.138 71.5999C149.856 72.1199 149.735 72.6399 149.733 73.1999C149.731 73.6999 149.93 74.1199 150.349 74.4599C150.768 74.8199 151.348 74.9799 152.068 74.9799C152.228 74.9799 152.428 74.9399 152.668 74.8599C152.888 74.7799 153.109 74.6599 153.309 74.5199C153.509 74.3999 153.67 74.2599 153.81 74.0999C153.951 73.9399 154.031 73.7999 154.032 73.6599Z" fill="#0A0A0A"/>
<path d="M72.87 51.7977C72.0852 45.7573 69.7309 32.029 67.8251 20.7168C67.713 19.8382 67.3767 19.0694 67.1525 18.4105C67.1525 18.3007 67.0404 18.081 66.8161 17.7515C66.704 17.422 66.3677 16.7631 66.2556 16.5434C66.2556 16.3238 66.3677 15.6648 66.3677 15.4452C66.4798 15.0059 66.4798 14.5666 66.4798 14.2371C66.8162 7.42784 64.574 1.71686 63.6771 0.838246C62.5561 -0.150193 61.2108 -0.0403661 60.426 0.0694604C58.8565 0.179287 57.3991 0.728419 56.1659 1.27755C55.3812 1.60703 54.7085 1.82668 53.9238 2.15616C53.139 2.48564 52.4664 2.7053 51.6816 3.03478C51.3453 3.1446 51.009 3.36426 50.6726 3.47408C48.4305 4.46252 47.6457 4.68217 45.852 3.91339C43.8341 2.92495 41.4798 2.48564 38.565 2.26599C35.426 2.15616 32.8475 2.37582 30.7175 3.1446C28.3632 3.91339 26.9058 4.35269 24.8879 3.91339C23.6547 3.58391 22.3094 3.03478 21.0762 2.37582C20.2915 2.04634 19.6188 1.60703 18.8341 1.38738C17.6009 0.838246 16.1435 0.289113 14.574 0.179287C13.7892 0.0694604 12.4439 -0.0403661 11.3229 0.948072C10.3139 1.60703 8.40808 7.64749 8.7444 14.2371C8.7444 14.4567 8.8565 14.896 8.8565 15.3353C8.8565 15.6648 8.96861 16.214 8.96861 16.4336C8.8565 16.7631 8.52018 17.422 8.40807 17.7515C8.29597 17.9712 8.18386 18.3007 8.18386 18.4105C7.95965 19.0694 7.62332 19.8382 7.51121 20.7168C6.72645 24.8902 6.05381 29.1735 5.26906 33.2371C3.69955 41.9134 2.35426 49.4914 2.01794 51.7977C1.00897 59.7052 0.224214 71.0174 0.112106 74.422V74.9711C0.112106 75.5203 0.112106 76.3989 0.112106 77.9364C0.112106 80.2428 0.112106 83.9769 0.112106 86.8324L0 120H74.8879V118.133C74.8879 108.139 75 91.6648 75 90.6763C75 75.081 74.3274 63 72.87 51.7977Z" fill="#EC008C"/>
<path d="M25.125 66.6399L25.1252 66.5599C25.1059 66.3199 25.0866 66.0799 25.0874 65.8199C25.0881 65.5599 25.0889 65.2999 25.0897 65.0199C25.0908 64.6399 25.0924 64.1199 25.1343 63.4599C25.1562 62.7999 25.1986 61.9999 25.2614 61.0599C25.3455 59.6599 25.3889 58.5 25.3915 57.6L25.393 57.1C25.3576 55.54 24.9798 54.76 24.2598 54.76C24.1398 54.76 23.9797 54.8 23.7596 54.86C23.6394 54.9 23.5592 54.98 23.4788 55.1C23.3985 55.22 23.3582 55.32 23.358 55.4C23.3569 55.76 23.3759 56.12 23.4547 56.52C23.5135 56.92 23.5523 57.32 23.5511 57.74C23.5491 58.42 23.486 59.46 23.3621 60.8199C23.2379 62.2199 23.175 63.2399 23.173 63.8999C23.1715 64.4199 23.1901 64.8799 23.2288 65.3199C23.2676 65.7599 23.3264 66.1599 23.4253 66.5199C23.5043 66.8799 23.9437 67.0599 24.7637 67.0599C25.0037 67.0599 25.1241 66.9199 25.125 66.6399ZM28.4416 70.0399L28.4412 70.1599C28.4405 70.3999 28.56 70.5799 28.7996 70.6999C28.8795 70.7399 28.9794 70.7799 29.0593 70.8199C29.1391 70.8599 29.239 70.9199 29.3389 70.9599C29.4386 71.0399 29.5386 71.0599 29.6386 71.0599C29.8586 71.0599 30.0989 70.9399 30.3397 70.6599C31.7442 69.1399 32.47 67.1599 32.4772 64.7199C32.478 64.4399 32.4589 64.1399 32.4398 63.8399C32.4206 63.5599 32.3815 63.2599 32.3423 62.9599C32.1458 61.7799 31.0484 60.8999 29.0701 60.2999C29.1526 59.46 29.4557 58.4 29.9795 57.12C30.3401 56.92 31.0608 56.68 32.1815 56.42C33.1222 56.2 33.8031 55.9 34.2441 55.54C34.2442 55.52 34.2644 55.46 34.2647 55.34C34.2651 55.2 34.2056 55.04 34.1062 54.84C33.8268 54.62 33.5272 54.5 33.2072 54.5C32.9672 54.5 32.5869 54.6 32.0263 54.78C31.5458 54.96 31.1656 55.04 30.8856 55.04C30.7456 55.04 30.5856 55.02 30.4259 54.94C30.3468 54.64 30.0872 54.48 29.6672 54.48C29.3472 54.48 29.1669 54.58 29.0863 54.78C27.9985 57.46 27.4323 59.5599 27.388 61.0399C27.387 61.3599 27.6663 61.6199 28.2257 61.8199C28.3056 61.8599 28.7054 61.8999 29.4253 61.9399C29.9052 61.9799 30.2447 62.1599 30.4037 62.4799C30.7219 63.1199 30.8797 63.8599 30.8773 64.6799C30.8731 66.1199 30.4691 67.4599 29.6854 68.7199C29.5247 68.9799 29.224 69.2199 28.8033 69.4399C28.563 69.5599 28.4424 69.7599 28.4416 70.0399ZM41.0814 67.5999H41.1814C41.4014 67.5999 41.5615 67.5399 41.6619 67.4199C41.7623 67.2999 41.8226 67.1799 41.843 67.0599L41.8538 63.3799C41.9739 63.3199 42.0341 63.2799 42.0141 63.2799C41.9941 63.2799 42.0141 63.2599 42.0541 63.2599C42.0941 63.2599 42.1938 63.3599 42.3533 63.5199C42.5129 63.6799 42.6723 63.8799 42.8717 64.0799C43.0511 64.2799 43.2305 64.4999 43.4299 64.6999C43.6293 64.8999 43.7689 65.0399 43.8887 65.1199C44.0483 65.2399 44.2279 65.3799 44.4474 65.5399C44.6469 65.6999 44.8665 65.8399 45.1062 65.9599C45.3258 66.0999 45.5454 66.2199 45.7651 66.3199C45.9848 66.4199 46.1847 66.4799 46.3447 66.4799C46.5247 66.4599 46.705 66.3799 46.9054 66.2399C47.1057 66.1199 47.2062 65.9599 47.2067 65.7999C47.2069 65.6999 47.1871 65.6399 47.1472 65.5999C47.1074 65.5599 47.0875 65.5199 47.0877 65.4399C47.0477 65.4399 47.0278 65.4199 47.0278 65.3999C47.0278 65.3999 47.0079 65.3799 46.988 65.3399L46.8084 65.1999C46.2492 64.9399 45.77 64.6599 45.4109 64.3599C45.0317 64.0799 44.6527 63.7399 44.2538 63.3799C44.1141 63.2599 43.9945 63.1399 43.8749 62.9799C43.7554 62.8199 43.6959 62.6599 43.6965 62.4599C43.7166 62.4199 43.7367 62.3799 43.7368 62.3599C43.7368 62.3399 43.7769 62.3199 43.817 62.2799C44.1979 61.9799 44.5987 61.6799 45.0196 61.3999C45.4204 61.1199 45.8213 60.8199 46.1823 60.4799C46.3026 60.3799 46.3829 60.2599 46.4233 60.1399C46.4436 60.0199 46.464 59.8999 46.4643 59.7799L46.465 59.5599L46.146 59.22C46.0261 59.16 45.9263 59.1 45.8264 59.06C45.7066 59.02 45.6067 58.98 45.5067 58.98C45.3267 58.98 45.1666 59.02 45.0063 59.1C44.8461 59.18 44.7258 59.28 44.6056 59.36C44.4853 59.46 44.405 59.54 44.3448 59.62C44.2846 59.6999 44.2645 59.7199 44.3046 59.6999C43.8834 60.0999 43.5224 60.4199 43.2417 60.6799C42.9609 60.9599 42.7203 61.1599 42.5398 61.3199C42.3393 61.4799 42.199 61.5999 42.1187 61.6799C42.0185 61.7599 41.9585 61.7799 41.9385 61.7799L41.939 61.5999C41.9199 61.2799 41.9008 60.9799 41.9016 60.6999C41.9024 60.4199 41.8832 60.1799 41.8839 59.9399C41.8846 59.6999 41.8652 59.48 41.8459 59.26C41.8065 59.04 41.7672 58.8 41.728 58.54C41.6886 58.32 41.5491 58.16 41.3094 58.04C41.0498 57.92 40.79 57.86 40.53 57.86C40.41 57.86 40.3098 57.92 40.2294 58.04C40.1291 58.16 40.0689 58.22 40.0288 58.26C40.0086 58.34 40.0084 58.4 40.0082 58.46L40.0076 58.68C40.0069 58.92 40.0062 59.14 40.0256 59.36C40.0449 59.58 40.0645 59.7199 40.0643 59.7999C40.0837 59.9999 40.1032 60.1799 40.1227 60.3399C40.1222 60.4999 40.1417 60.6799 40.1411 60.8799L40.1284 65.1999C40.0472 65.5999 40.0063 65.9199 40.0057 66.1399C39.985 66.3799 39.9845 66.5399 39.9841 66.6599C39.9838 66.7599 39.9837 66.8199 39.9835 66.8599C39.9834 66.8999 40.0034 66.9199 40.0034 66.9199C40.0233 66.9599 40.0631 67.0199 40.1228 67.0999C40.1626 67.1799 40.2424 67.2399 40.3222 67.3199C40.402 67.3999 40.5218 67.4599 40.6416 67.5199C40.7614 67.5799 40.9214 67.5999 41.0814 67.5999ZM53.2074 65.6599L53.2078 65.5199C53.1878 65.4999 53.148 65.4399 53.0883 65.3399C53.0286 65.2599 52.9487 65.1999 52.8687 65.1999C52.7887 65.1999 52.6486 65.2399 52.4484 65.2999L52.1682 65.3799C52.0681 65.4199 51.9881 65.4199 51.9081 65.4199C51.3881 65.4199 51.0483 65.3599 50.8686 65.2399C50.669 65.1199 50.5896 64.8999 50.5905 64.5999C50.5912 64.3599 50.6519 64.1199 50.7927 63.8399C50.9335 63.5799 51.1143 63.2999 51.3152 62.9799L51.4358 62.7999C51.697 62.3799 51.9584 61.9199 52.2198 61.4399C52.4612 60.9599 52.6028 60.4199 52.6044 59.8599C52.6049 59.6999 52.5655 59.5 52.506 59.3C52.4466 59.1 52.3672 58.92 52.2876 58.76C52.2081 58.6 52.1085 58.46 51.9889 58.34C51.8692 58.22 51.7694 58.16 51.6894 58.16H51.4094C50.7494 58.16 50.1691 58.26 49.6486 58.42C49.1281 58.6 48.6074 58.84 48.1265 59.16L48.0462 59.24C47.9259 59.34 47.8256 59.44 47.7053 59.5599C47.5849 59.6799 47.5445 59.8199 47.5442 59.9399C47.5439 60.0199 47.5637 60.0999 47.6234 60.1999C47.6631 60.2999 47.7228 60.3999 47.8026 60.4799C47.8623 60.5799 47.9421 60.6599 48.0219 60.7199C48.1016 60.7999 48.1616 60.8199 48.2416 60.8199C48.3216 60.8199 48.3816 60.7999 48.4619 60.7199C48.5221 60.6599 48.6023 60.5799 48.6826 60.4799C48.7628 60.3999 48.8431 60.2999 48.9634 60.1999C49.0636 60.1199 49.2039 60.0399 49.3641 59.9599C49.5645 59.8399 49.7646 59.7799 49.9248 59.7399C50.0848 59.7199 50.1849 59.6999 50.2249 59.6999C50.3649 59.6999 50.4648 59.7399 50.5446 59.7799C50.6045 59.8199 50.6643 59.8799 50.7242 59.9399C50.7839 60.0199 50.8236 60.1399 50.8632 60.2599C50.9029 60.3799 50.9226 60.4799 50.9223 60.5599C50.9222 60.5999 50.9021 60.6399 50.902 60.6799C50.9019 60.7199 50.9018 60.7399 50.9018 60.7599L50.9013 60.9199C50.8409 61.0399 50.7605 61.1799 50.6399 61.3799C50.5194 61.5799 50.3988 61.7799 50.2581 61.9999L50.1778 62.1199C49.8564 62.5999 49.575 63.0799 49.3134 63.5999C49.0319 64.1199 48.9104 64.6399 48.9087 65.1999C48.9073 65.6999 49.106 66.1199 49.525 66.4599C49.944 66.8199 50.5235 66.9799 51.2435 66.9799C51.4035 66.9799 51.6036 66.9399 51.8439 66.8599C52.0641 66.7799 52.2844 66.6599 52.4849 66.5199C52.6852 66.3999 52.8456 66.2599 52.9861 66.0999C53.1266 65.9399 53.207 65.7999 53.2074 65.6599Z" fill="white"/>
</svg>
