<svg width="32" height="32" viewBox="0 0 32 32" fill="none" xmlns="http://www.w3.org/2000/svg">
<path fill-rule="evenodd" clip-rule="evenodd" d="M4.6875 0H27.3125C29.897 0 32 2.10303 32 4.6875V27.3125C32 29.897 29.897 32 27.3125 32H19.75H14.125H4.6875C2.10303 32 0 29.897 0 27.3125V4.6875C0 2.10303 2.10303 0 4.6875 0ZM23.957 15.85C23.6786 16.29 23.567 16.5089 23.957 17.0011C23.9863 17.0415 24.134 17.1896 24.3574 17.4136C25.3013 18.3602 27.5955 20.6606 28.0011 21.9009C28.2203 22.6301 27.8393 22.9998 27.0874 22.9998H24.4496C23.7457 22.9998 23.3907 22.6126 22.6224 21.7748C22.2957 21.4185 21.8943 20.9807 21.3595 20.4565C19.7913 18.9749 19.1198 18.782 18.7298 18.782C18.0152 18.782 18.017 18.982 18.0338 20.8403C18.0367 21.1701 18.0402 21.552 18.0402 21.9943C18.0402 22.6301 17.8351 22.9998 16.1553 22.9998C13.3608 22.9998 10.2887 21.3354 8.10737 18.2637C4.83429 13.7637 3.93762 10.3576 3.93762 9.67254C3.93762 9.28482 4.08941 8.93828 4.84234 8.93828H7.4811C8.15763 8.93828 8.41195 9.22757 8.67231 9.94375C9.96204 13.6352 12.1384 16.8605 13.0351 16.8605C13.3718 16.8605 13.5236 16.7068 13.5236 15.8711V12.0571C13.4627 10.9705 13.0764 10.5007 12.7903 10.1527C12.6136 9.93786 12.4751 9.76945 12.4751 9.53091C12.4751 9.24464 12.7255 8.93728 13.1467 8.93728H17.2943C17.8502 8.93728 18.0382 9.23158 18.0382 9.89051V15.0183C18.0382 15.5677 18.2945 15.7606 18.4594 15.7606C18.7941 15.7606 19.0776 15.5677 19.6908 14.9661C21.5907 12.8838 22.9337 9.67154 22.9337 9.67154C23.0996 9.28382 23.4092 8.93728 24.0807 8.93728H26.7184C27.5156 8.93728 27.6805 9.34107 27.5156 9.89051L27.5136 9.89152C27.1819 11.3992 23.9621 15.845 23.957 15.85Z" fill="url(#paint0_linear)"/>
<defs>
<linearGradient id="paint0_linear" x1="15.28" y1="4.21128" x2="32.4388" y2="19.2847" gradientUnits="userSpaceOnUse">
<stop stop-color="#F01086"/>
<stop offset="1" stop-color="#2C6BE9"/>
</linearGradient>
</defs>
</svg>
