<svg width="24" height="24" fill="none" xmlns="http://www.w3.org/2000/svg"><g clip-path="url(#clip0)"><path d="M19.915 13.027c-.388-.49-.277-.707 0-1.145.005-.005 3.208-4.431 3.538-5.932l.002-.001c.164-.547 0-.95-.793-.95h-2.624c-.668 0-.976.346-1.141.732 0 0-1.336 3.198-3.226 5.27-.61.6-.892.792-1.225.792-.164 0-.419-.192-.419-.74V5.95c0-.656-.187-.95-.74-.95H9.161c-.419 0-.668.307-.668.592 0 .622.945.765 1.043 2.515v3.796c0 .833-.151.986-.486.986-.892 0-3.057-3.211-4.34-6.886C4.451 5.289 4.198 5 3.525 5H.9c-.749 0-.9.345-.9.73 0 .683.892 4.074 4.148 8.553C6.318 17.343 9.374 19 12.154 19c1.671 0 1.875-.369 1.875-1.002 0-2.922-.151-3.198.686-3.198.388 0 1.056.192 2.616 1.668C19.114 18.216 19.407 19 20.405 19h2.624c.748 0 1.127-.369.909-1.095-.499-1.527-3.871-4.668-4.023-4.878z" fill="#4B729F"/></g><defs><clipPath id="clip0"><path fill="#fff" d="M0 0h24v24H0z"/></clipPath></defs></svg>