<svg width="24" height="24" viewBox="0 0 24 24" fill="none" xmlns="http://www.w3.org/2000/svg">
<g clip-path="url(#clip0)">
<path d="M19.915 13.0275C19.527 12.5375 19.638 12.3195 19.915 11.8815C19.92 11.8765 23.123 7.45051 23.453 5.94951L23.455 5.94851C23.619 5.40151 23.455 4.99951 22.662 4.99951H20.038C19.37 4.99951 19.062 5.34451 18.897 5.73051C18.897 5.73051 17.561 8.92851 15.671 11.0015C15.061 11.6005 14.779 11.7925 14.446 11.7925C14.282 11.7925 14.027 11.6005 14.027 11.0535V5.94851C14.027 5.29251 13.84 4.99951 13.287 4.99951H9.161C8.742 4.99951 8.493 5.30551 8.493 5.59051C8.493 6.21251 9.438 6.35551 9.536 8.10551V11.9025C9.536 12.7345 9.385 12.8875 9.05 12.8875C8.158 12.8875 5.993 9.67651 4.71 6.00151C4.451 5.28851 4.198 5.00051 3.525 5.00051H0.9C0.151 5.00051 0 5.34551 0 5.73151C0 6.41351 0.892 9.80451 4.148 14.2845C6.318 17.3425 9.374 18.9995 12.154 18.9995C13.825 18.9995 14.029 18.6315 14.029 17.9985C14.029 15.0765 13.878 14.8005 14.715 14.8005C15.103 14.8005 15.771 14.9925 17.331 16.4675C19.114 18.2165 19.407 18.9995 20.405 18.9995H23.029C23.777 18.9995 24.156 18.6315 23.938 17.9055C23.439 16.3785 20.067 13.2375 19.915 13.0275Z" fill="#4B729F"/>
</g>
<defs>
<clipPath id="clip0">
<rect width="24" height="24" fill="white"/>
</clipPath>
</defs>
</svg>
