<?xml version="1.0" encoding="utf-8"?>
<!-- Generator: Adobe Illustrator 23.1.0, SVG Export Plug-In . SVG Version: 6.00 Build 0)  -->
<svg version="1.1" id="Layer_1" xmlns="http://www.w3.org/2000/svg" xmlns:xlink="http://www.w3.org/1999/xlink" x="0px" y="0px"
	 viewBox="0 0 68 32.8" enable-background="new 0 0 68 32.8" xml:space="preserve">
<path fill-rule="evenodd" clip-rule="evenodd" fill="#E6007E" d="M67.5,2.5c0-0.4,0-0.7-0.7-1.2c-1.3-1.1-4.7-1.2-4.9-1.2
	c-2.5-0.2-5.1-0.1-7.7,0.1c-3.8,0.3-7.6,1-11.3,1.8C38.9,2.9,35,4,31.4,5.4c-3.7,1.5-7.3,3.3-10.7,5.5c-2,1.3-3.9,2.7-5.8,4.2
	C10.7,18.6,7,22.7,3.8,27.4c-0.1,0.2-0.1,0.3,0.1,0.4c0.2,0.1,0.3,0.1,0.4-0.1c3.8-4,7.9-7.4,12.4-10.4c1.9-1.3,3.8-2.5,5.8-3.6
	c3.3-1.9,6.8-3.5,10.3-4.9c3.5-1.4,7.1-2.6,10.9-3.5c2.9-0.7,5.9-1.4,9-1.9c3-0.4,6-0.8,9.1-0.7l5.3-0.1C67.3,2.6,67.4,2.6,67.5,2.5
	z"/>
<path fill-rule="evenodd" clip-rule="evenodd" fill="#E6007E" d="M10.3,10.7c0.3-1.1-0.4-2.3-1.6-2.3c-0.1-0.1-0.1,0-0.2,0
	c-0.2,0.2-0.5,0.5-0.8,1C7.3,9.8,7,10.3,6.8,11c-0.7,1.5-1.1,3.4-1.2,3.6c-1,3.2-2.7,6.8-3.7,10.4c-0.5,1.8-0.8,3.4-0.8,5.1
	c0,0.4,0,0.7,0.2,1.1c0.1,0.3,0.2,0.6,0.5,0.8c0.4,0.5,1.1,0.8,1.8,0.8c0.7,0,1.9-0.6,2.3-0.7c1.8-0.8,3.5-1.5,5.3-2.1
	c1.7-0.6,3.3-1.2,5-1.8c2.5-1,5-1.9,7.6-2.7c0.4-0.1,0.6-0.4,0.6-0.8c-0.1-0.4-0.5-0.6-0.8-0.6c-3.3,0.4-6.6,0.6-9.8,1.4
	c-3.1,0.7-6,1.9-8.9,3.2C5,28,5.1,27.2,5.3,26.3c1-3.5,2.6-7.2,3.4-10.3L10.3,10.7z"/>
</svg>
