<svg xmlns="http://www.w3.org/2000/svg" xmlns:xlink="http://www.w3.org/1999/xlink" x="0px" y="0px"
	 viewBox="0 0 234.8 119.7" enable-background="new 0 0 234.8 119.7" xml:space="preserve">
<path fill="#FFFFFF" d="M232.6,49.1c1.6-7.7-0.7-15.3-6.3-21.6c-2.9-3.1-6.5-5.7-10.8-7.8c-4.3-2-9.1-3.6-14.1-4.7
	c-5-1.1-10.2-2-15.4-2.6c-5.2-0.6-10.6-1.1-16-1.4c-5.4-0.3-10.8-0.7-16.3-1.1c-5.5-0.4-10.8-0.8-16.1-1.1
	c-10.7-0.6-21.4-0.8-32.2-0.5c-10.7,0.3-21.4,1.4-31.9,3.4c-10.5,2-20.7,5.1-30.2,9.1c-9.5,4-17.9,9.3-24.6,15.5
	C12.2,42.6,7.9,49.8,6.4,57.4l-0.5,2.8L5.9,63c0.1,0.9,0,1.9,0,2.8c0,0.9,0.2,1.9,0.4,2.7c0.8,3.6,2.3,7.2,4.3,10.5
	c2.1,3.4,4.6,6.6,7.3,9.8c2.6,3.1,5.5,6.2,8.8,9c1.6,1.4,3.3,2.6,5.1,3.8c1.7,1.1,3.7,2,5.8,2.8c4.5,1.5,9.3,2.5,14.3,2.9
	c21.1,2.4,42.7,2.8,64.3,1.2c10.8-0.8,21.5-2,32.1-3.7c5.3-0.9,10.6-1.8,15.9-2.9c5.3-1,10.4-2.3,15.7-3.5l0.4,0
	c1.2-0.3,2.4-0.2,3.5,0.1l10.3,3.3l9.9,3.4c6.8,2.2,13.5,4.6,20.2,7l-5.7,3.4l-9.3-31.1l0-0.1c-0.1-0.2-0.1-0.4,0-0.5
	c0.6-1.4,1-2.8,1.1-4.2l0-0.1c0-0.2,0.2-0.5,0.4-0.6c2.7-2.2,5.3-4.4,7.7-6.7c2.4-2.3,4.6-4.8,6.6-7.3
	C228.8,60.1,231.5,54.7,232.6,49.1z M233.6,49.1c-0.5,2.8-1.4,5.7-2.7,8.4c-1.3,2.7-2.9,5.4-4.7,8.1c-1.8,2.6-3.9,5.2-6.2,7.6
	c-2.2,2.5-4.6,4.9-7.1,7.2l0.4-0.7c0.1,1.6-0.1,3.2-0.6,4.8l-0.1-0.6L226,114c0.3,0.7,0.2,1.4-0.3,2.1c-0.5,0.7-1.3,1.2-2.3,1.4
	c-0.9,0.2-1.9,0.2-2.8,0l-0.3-0.1c-7-2-14-4-20.9-6.1l-10.4-3.1l-10.3-3.2l3.9,0.1c-21.5,5.7-43.8,9.3-66.3,10.6
	c-22.5,1.3-44.9,0.5-66.7-2.5c-5.7-0.7-11.2-2-16.3-3.9c-2.6-1-5-2.3-7.1-3.8c-2-1.4-3.9-2.9-5.6-4.6c-3.1-3.2-5.9-6.5-8.3-10
	c-2.5-3.4-4.8-6.9-6.7-10.5C3.8,76.8,2.6,72.9,2,69c-0.1-1-0.2-2-0.3-3c-0.1-1,0.2-2,0.2-3l0.3-3L3,57.2c0.3-1,0.4-2,0.7-2.9L5,51.3
	c0.7-1.9,1.7-3.8,2.9-5.7l0.8-1.5l1-1.3l2-2.7c1.4-1.8,3.1-3.4,4.7-5.1c6.9-6.5,15.4-12.2,25-16.7c9.5-4.6,19.9-8.3,30.7-11
	c21.8-5.4,45-6.2,67-4.8c5.5,0.3,11,0.8,16.4,1.4c5.4,0.5,10.8,1.1,16.1,1.7c11,1.2,21.7,3.3,31.8,6.2c5.1,1.5,9.9,3.5,14.1,5.9
	c4.2,2.5,7.8,5.5,10.5,8.8c2.7,3.3,4.5,7,5.3,10.8C234.2,41.4,234.3,45.3,233.6,49.1z"/>
</svg>
