<svg width="239" height="150" viewBox="0 0 239 150" fill="none" xmlns="http://www.w3.org/2000/svg">
<path d="M5.11911 64.5969C3.24048 56.1198 5.13397 47.4521 10.4831 40.0429C13.2035 36.4637 16.7357 33.3081 20.9111 30.7268C25.1534 28.2352 29.8162 26.2063 34.7744 24.6945C39.7373 23.138 44.8476 21.8717 50.0636 20.906C55.2763 19.896 60.6004 19.0922 65.9595 18.4139C71.3186 17.7355 76.7198 16.9968 82.1602 16.275C87.6005 15.5533 92.8825 14.8099 98.1604 14.175C108.796 12.8539 119.54 12.0548 130.33 11.7823C141.054 11.5087 151.806 12.1627 162.392 13.7322C173.014 15.368 183.298 18.2178 192.909 22.1892C202.577 26.1485 211.165 31.5686 218.164 38.1277C225.065 44.7298 229.655 52.6003 231.472 60.9487L232.127 64.0787L232.306 67.1904C232.266 68.229 232.405 69.2744 232.425 70.2998C232.445 71.3252 232.345 72.3769 232.127 73.3931C231.484 77.516 230.179 81.5495 228.241 85.3986C226.254 89.2933 223.941 93.0778 221.317 96.7282C218.851 100.396 216.056 103.919 212.951 107.273C211.429 108.88 209.775 110.408 207.999 111.848C206.313 113.184 204.409 114.342 202.335 115.293C197.885 117.185 193.102 118.569 188.128 119.402C167.155 123.25 145.577 124.944 123.938 124.442C113.151 124.189 102.382 123.416 91.6912 122.128C86.3438 121.472 81.0216 120.677 75.7216 119.82C70.4217 118.964 65.2306 117.864 59.918 116.821L59.5604 116.807C58.3689 116.595 57.1279 116.723 56.0641 117.169L45.9501 121.436L36.2287 125.843C29.5324 128.69 22.9451 131.804 16.3428 134.794L22.177 138.31L30.1617 103.068L30.1671 102.929C30.244 102.733 30.2521 102.525 30.1904 102.324C29.5163 100.838 29.1007 99.2925 28.9547 97.7279L28.9589 97.6194C28.9308 97.3619 28.7847 97.1193 28.5475 96.936C25.7705 94.6401 23.0947 92.3015 20.5627 89.8443C18.073 87.3743 15.7736 84.7922 13.6772 82.1118C9.41792 76.7362 6.51207 70.7891 5.11911 64.5969ZM4.14014 64.6989C4.74986 67.8494 5.75679 70.9511 7.14617 73.9584C8.57734 76.9547 10.2735 79.8731 12.2221 82.6922C14.1782 85.5085 16.3527 88.2312 18.7332 90.8449C21.0593 93.4805 23.548 96.0292 26.1383 98.5197L25.7311 97.7279C25.7254 99.53 26.0103 101.33 26.5792 103.085L26.6073 102.357L14.4348 136.801C14.1751 137.579 14.316 138.411 14.8273 139.12C15.3387 139.83 16.1804 140.361 17.1736 140.601C18.119 140.82 19.1278 140.759 20.0058 140.431L20.2888 140.318C27.1568 137.664 34.0621 135.074 40.8734 132.34L51.0989 128.279L61.2087 124.12L57.3571 124.406C79.057 129.554 101.523 132.286 124.084 132.52C146.596 132.696 168.974 130.478 190.602 125.925C196.312 124.815 201.751 123.019 206.727 120.601C209.296 119.288 211.624 117.712 213.653 115.915C215.623 114.218 217.423 112.403 219.036 110.488C222.022 106.772 224.659 102.89 226.926 98.8693C229.329 94.9156 231.426 90.8494 233.206 86.6922C234.955 82.4963 236.019 78.1355 236.373 73.712C236.416 72.5959 236.459 71.4799 236.501 70.3793C236.544 69.2787 236.248 68.1651 236.171 67.0599L235.784 63.6763L234.891 60.5371C234.594 59.4545 234.397 58.3602 234.021 57.2901L232.71 54.1347C231.883 52.0146 230.831 49.9488 229.565 47.9592L228.691 46.3731L227.632 44.9351L225.474 42.0731C223.994 40.1843 222.191 38.4537 220.569 36.637C213.365 29.7672 204.684 23.9245 194.928 19.3795C185.192 14.77 174.706 11.2308 163.773 8.86432C141.712 4.03986 118.53 4.54352 96.6133 7.33139C91.1344 8.02061 85.6483 8.89584 80.2803 9.80667C74.9122 10.7175 69.5629 11.6601 64.2502 12.6817C53.3138 14.6325 42.7342 17.5855 32.7293 21.4798C27.6953 23.4715 23.0297 25.9742 18.8514 28.9242C14.7341 31.9299 11.3199 35.4736 8.75668 39.4019C6.215 43.2694 4.56506 47.4662 3.88098 51.804C3.19208 56.0788 3.27932 60.4197 4.14014 64.6989Z" fill="white"/>
</svg>
