<?xml version="1.0" encoding="utf-8"?>
<!-- Generator: Adobe Illustrator 23.1.0, SVG Export Plug-In . SVG Version: 6.00 Build 0)  -->
<svg version="1.1" id="Layer_1" xmlns="http://www.w3.org/2000/svg" xmlns:xlink="http://www.w3.org/1999/xlink" x="0px" y="0px"
	 viewBox="0 0 38.7 38.5" enable-background="new 0 0 38.7 38.5" xml:space="preserve">
<path fill="#FFFFFF" d="M38.1,19.3c0,4.8-1.8,9.6-5.2,13.2c-1.7,1.8-3.8,3.2-6.1,4.2c-2.3,1-4.8,1.4-7.3,1.4c-2.5-0.1-5-0.6-7.3-1.6
	c-2.3-1-4.3-2.4-6.1-4.1c-1.7-1.7-3.1-3.7-4.1-6c-0.9-2.1-1.5-4.6-1.5-7C0.3,14.4,2.3,9.5,5.9,6c1.7-1.8,3.9-3.2,6.2-4.1
	c2.3-1,4.8-1.5,7.3-1.5c2.5,0,5,0.5,7.4,1.5c2.3,1,4.4,2.4,6.1,4.2C36.3,9.7,38.1,14.5,38.1,19.3z M38,19.3c0-2.4-0.5-4.8-1.5-6.9
	c-1-2.1-2.4-4.1-4.2-5.7c-3.5-3.2-8.1-5-12.8-5S10.1,3.5,6.7,6.8C3.4,10,1.3,14.6,1.2,19.3C1.1,24,3,28.7,6.4,32
	c3.4,3.3,8.3,5.1,13,5c4.8-0.1,9.4-1.9,12.9-5.1c1.7-1.6,3.2-3.5,4.2-5.7C37.4,24,38,21.7,38,19.3z"/>
<path fill="#FFFFFF" d="M16.3,17.9c-1.8-1.8-3.4-2.1-4.4-4.7c-0.3-0.9,0.9-0.2,0.9-0.2s3.5,3.5,5.7,5.8c0.8,0.8,1.2,1.2,1.9,2
	c2.1,2,4.5,4.6,5.7,4.8c1.2,0.2,0.2,1.3-0.7,1.4c-0.9,0.2-3.3-3.3-3.3-3.3S18.6,20.2,16.3,17.9z"/>
<path fill="#FFFFFF" d="M16.9,22.4c-1.8,1.8-2.1,3.4-4.6,4.5c-0.8,0.4-0.2-0.9-0.2-0.9s3.5-3.6,5.7-5.8c0.8-0.8,1.2-1.2,1.9-2
	c2-2.1,4.5-4.6,4.7-5.8c0.2-1.2,1.2-0.2,1.4,0.7c0.2,0.9-3.3,3.3-3.3,3.3S19.2,20.1,16.9,22.4z"/>
</svg>
