<svg width="32" height="32" viewBox="0 0 32 32" fill="none" xmlns="http://www.w3.org/2000/svg">
<path fill-rule="evenodd" clip-rule="evenodd" d="M27.3125 0H4.6875C2.10303 0 0 2.10303 0 4.6875V27.3125C0 29.897 2.10303 32 4.6875 32H14.125H19.75H27.3125C29.897 32 32 29.897 32 27.3125V4.6875C32 2.10303 29.897 0 27.3125 0ZM16 22.6251C19.6589 22.6251 22.625 19.659 22.625 16.0001C22.625 12.3412 19.6589 9.3751 16 9.3751C12.3411 9.3751 9.37498 12.3412 9.37498 16.0001C9.37498 19.659 12.3411 22.6251 16 22.6251ZM16 24.6251C20.7634 24.6251 24.625 20.7636 24.625 16.0001C24.625 11.2366 20.7634 7.3751 16 7.3751C11.2365 7.3751 7.37498 11.2366 7.37498 16.0001C7.37498 20.7636 11.2365 24.6251 16 24.6251ZM25.7502 6.75028C25.7502 7.16449 25.4144 7.50028 25.0002 7.50028C24.586 7.50028 24.2502 7.16449 24.2502 6.75028C24.2502 6.33606 24.586 6.00028 25.0002 6.00028C25.4144 6.00028 25.7502 6.33606 25.7502 6.75028ZM27.5002 6.75028C27.5002 8.13099 26.3809 9.25028 25.0002 9.25028C23.6195 9.25028 22.5002 8.13099 22.5002 6.75028C22.5002 5.36957 23.6195 4.25028 25.0002 4.25028C26.3809 4.25028 27.5002 5.36957 27.5002 6.75028Z" fill="url(#paint0_linear)"/>
<defs>
<linearGradient id="paint0_linear" x1="15.28" y1="4.21128" x2="32.4388" y2="19.2847" gradientUnits="userSpaceOnUse">
<stop stop-color="#F01086"/>
<stop offset="1" stop-color="#2C6BE9"/>
</linearGradient>
</defs>
</svg>
