<svg width="198" height="124" viewBox="0 0 198 124" fill="none" xmlns="http://www.w3.org/2000/svg">
<path d="M194.801 61.5321C197.146 54.6772 196.36 47.3187 192.575 40.6868C190.632 37.4707 187.973 34.5313 184.725 32.009C181.412 29.555 177.706 27.446 173.707 25.7385C169.707 23.9936 165.557 22.4758 161.292 21.1974C157.034 19.8827 152.664 18.7286 148.253 17.6753C143.842 16.6221 139.401 15.5149 134.927 14.4182C130.452 13.3215 126.111 12.2214 121.764 11.2116C113.008 9.14209 104.113 7.49538 95.1324 6.28106C86.2065 5.07185 77.1716 4.62885 68.1923 4.96015C59.1762 5.34298 50.3311 6.76323 41.9446 9.17474C33.5121 11.5711 25.8469 15.2773 19.4039 20.0733C13.0377 24.9137 8.48505 31.0174 6.20319 37.7713L5.36914 40.3059L4.9348 42.8689C4.87299 43.7335 4.66128 44.5874 4.55042 45.4355C4.43957 46.2837 4.4268 47.1647 4.5158 48.027C4.67376 51.5035 5.39349 54.9666 6.65806 58.3349C7.95979 61.7454 9.54325 65.0945 11.3984 68.3607C13.1208 71.6269 15.1311 74.8037 17.4145 77.8678C18.5383 79.3396 19.7788 80.7579 21.1285 82.1139C22.4132 83.3764 23.8962 84.5107 25.5408 85.4888C29.0812 87.465 32.947 89.0502 37.0224 90.197C54.1752 95.3079 72.0299 98.6889 90.1379 100.255C99.1647 101.034 108.225 101.38 117.266 101.291C121.789 101.237 126.305 101.065 130.807 100.841C135.309 100.617 139.743 100.18 144.273 99.8022L144.573 99.8236C145.586 99.7571 146.61 99.9773 147.458 100.444L155.508 104.908L163.219 109.451C168.547 112.425 173.759 115.61 178.996 118.694L173.804 121.074L170.371 91.1283L170.379 91.0122C170.333 90.8433 170.345 90.6695 170.415 90.5089C171.114 89.3392 171.602 88.0957 171.868 86.8122L171.874 86.7218C171.921 86.511 172.066 86.3232 172.28 86.1931C174.809 84.5443 177.257 82.8508 179.595 81.0459C181.9 79.2265 184.056 77.2967 186.051 75.267C190.099 71.201 193.07 66.5375 194.801 61.5321ZM195.608 61.7063C194.811 64.2621 193.686 66.7409 192.25 69.1065C190.781 71.4591 189.098 73.723 187.213 75.8814C185.322 78.0367 183.257 80.0945 181.031 82.043C178.847 84.0146 176.536 85.8994 174.146 87.7266L174.558 87.1074C174.398 88.6019 173.995 90.0678 173.359 91.4707L173.403 90.8642L180.405 120.532C180.55 121.2 180.356 121.877 179.864 122.418C179.372 122.96 178.621 123.323 177.77 123.431C176.961 123.525 176.125 123.383 175.422 123.03L175.196 122.911C169.707 120.082 164.181 117.302 158.746 114.412L150.583 110.108L142.526 105.735L145.715 106.325C127.13 108.604 108.128 108.811 89.2751 106.938C70.4689 105.022 51.9935 101.132 34.3587 95.3769C29.6944 93.9335 25.3193 91.9465 21.3881 89.4863C19.3644 88.1627 17.5649 86.6434 16.0364 84.968C14.5475 83.3802 13.2119 81.7113 12.0411 79.9756C9.88958 76.6223 8.04473 73.1622 6.52069 69.6218C4.8777 66.1243 3.50022 62.5615 2.39553 58.9523C1.32054 55.3139 0.83237 51.6017 0.942432 47.9024C1.00886 46.9733 1.07528 46.0442 1.14079 45.128C1.20629 44.2118 1.55493 43.3158 1.72036 42.4067L2.35359 39.6373L3.3875 37.1169C3.73429 36.2467 3.99873 35.3576 4.41122 34.505L5.79489 32.0096C6.67968 30.3278 7.74713 28.7118 8.98602 27.1785L9.86106 25.9438L10.8768 24.8488L12.9406 22.6741C14.3485 21.2439 16.0128 19.9746 17.5327 18.6172C24.1757 13.5825 31.9574 9.53453 40.5173 6.66077C49.0665 3.73168 58.1433 1.75856 67.4855 0.798408C86.3418 -1.17972 105.645 1.36152 123.683 5.68034C128.193 6.7536 132.692 7.9817 137.089 9.2285C141.486 10.4753 145.864 11.7467 150.205 13.0803C159.155 15.6993 167.715 19.1164 175.708 23.2611C179.727 25.3733 183.392 27.8753 186.609 30.7035C189.77 33.5722 192.295 36.8225 194.074 40.3137C195.841 43.7524 196.834 47.3825 197.007 51.0409C197.19 54.6476 196.719 58.238 195.608 61.7063Z" fill="white"/>
</svg>
