<svg width="234" height="148" viewBox="0 0 234 148" fill="none" xmlns="http://www.w3.org/2000/svg">
<path d="M231.891 68.1441C234.095 59.2804 232.537 50.0624 227.477 42.0311C224.896 38.1459 221.488 34.6745 217.415 31.7824C213.272 28.9824 208.691 26.6532 203.795 24.8572C198.895 23.014 193.838 21.4709 188.663 20.2404C183.493 18.9634 178.204 17.8992 172.875 16.966C167.546 16.0328 162.177 15.0342 156.768 14.0519C151.36 13.0696 146.11 12.0709 140.861 11.1868C130.284 9.36124 119.578 8.08176 108.807 7.35582C98.1021 6.6314 87.3323 6.88397 76.6943 8.10892C66.0169 9.40224 55.6308 11.9897 45.8737 15.7873C36.0606 19.5698 27.2702 24.9368 20.0241 31.5696C12.8731 38.2516 7.98359 46.3654 5.84665 55.0958L5.07116 58.3701L4.7729 61.6445C4.77289 62.7414 4.59394 63.8383 4.53428 64.9188C4.47463 65.9994 4.53428 67.1126 4.71324 68.1932C5.19612 72.5674 6.34516 76.8741 8.13334 81.0122C9.96925 85.2004 12.1346 89.2856 14.6156 93.2419C16.9389 97.2101 19.5967 101.039 22.5693 104.702C24.0292 106.459 25.6231 108.138 27.3416 109.728C28.9748 111.206 30.8327 112.505 32.8694 113.592C37.2427 115.768 41.9693 117.422 46.9077 118.504C67.7169 123.414 89.2127 126.077 110.856 126.427C121.644 126.599 132.435 126.222 143.167 125.298C148.536 124.823 153.885 124.201 159.214 123.513C164.543 122.826 169.773 121.876 175.121 120.992L175.479 120.992C176.678 120.817 177.913 121.003 178.959 121.516L188.901 126.427L198.446 131.47C205.027 134.744 211.49 138.297 217.972 141.719L212.007 145.189L205.385 107.698L205.385 107.551C205.316 107.342 205.316 107.121 205.385 106.912C206.116 105.373 206.591 103.759 206.797 102.115L206.797 102.001C206.835 101.73 206.991 101.48 207.235 101.297C210.098 98.9884 212.862 96.6309 215.487 94.1424C218.07 91.6387 220.467 89.009 222.665 86.2676C227.128 80.7715 230.261 74.6178 231.891 68.1441ZM232.865 68.2914C232.135 71.5892 231.009 74.8193 229.505 77.9344C227.96 81.0361 226.152 84.0449 224.096 86.9388C222.033 89.8294 219.756 92.6124 217.276 95.272C214.85 97.957 212.265 100.544 209.581 103.065L210.018 102.246C209.955 104.147 209.601 106.034 208.965 107.862L208.965 107.092L219.801 143.912C220.031 144.743 219.858 145.615 219.32 146.342C218.782 147.07 217.92 147.596 216.918 147.809C215.965 148.001 214.96 147.896 214.095 147.514L213.816 147.383C207.056 144.305 200.255 141.293 193.554 138.133L183.493 133.435L173.551 128.638L177.388 129.096C155.506 133.643 132.952 135.611 110.398 134.941C87.8963 134.212 65.6199 130.962 44.1835 125.281C38.5204 123.878 33.1546 121.763 28.2761 119.011C25.7597 117.522 23.4932 115.766 21.5353 113.788C19.6319 111.918 17.9036 109.931 16.3654 107.846C13.525 103.806 11.0397 99.604 8.92871 95.272C6.68005 91.0047 4.74123 86.6312 3.1225 82.1746C1.53658 77.6785 0.641433 73.0364 0.458006 68.3569C0.458006 67.1781 0.458006 65.9994 0.458006 64.837C0.458007 63.6746 0.796039 62.5122 0.915345 61.3498L1.43234 57.7971L2.44643 54.5228C2.78447 53.3931 3.02308 52.2471 3.44065 51.1338L4.87232 47.8595C5.7805 45.6571 6.91124 43.5214 8.25264 41.4745L9.1872 39.8373L10.3007 38.3639L12.5675 35.4333C14.1185 33.5015 15.9876 31.7497 17.6778 29.8997C25.1412 22.9476 34.0409 17.1387 43.9648 12.7421C53.8712 8.27663 64.4856 4.97044 75.5013 2.91908C97.7319 -1.27208 120.877 0.201376 142.67 4.03236C148.119 4.98192 153.567 6.12794 158.896 7.30671C164.225 8.48547 169.534 9.69698 174.803 10.9903C185.657 13.4922 196.115 17.0365 205.962 21.5501C210.916 23.8552 215.481 26.6843 219.543 29.9652C223.541 33.3023 226.817 37.1784 229.227 41.4254C231.617 45.6073 233.105 50.1004 233.621 54.7029C234.145 59.2391 233.89 63.8135 232.865 68.2914Z" fill="white"/>
</svg>
