<svg width="261" height="158" viewBox="0 0 261 158" fill="none" xmlns="http://www.w3.org/2000/svg">
<path d="M255.879 89.2069C257.96 98.1592 255.926 107.317 250.114 115.149C247.158 118.932 243.315 122.269 238.767 125C234.145 127.636 229.063 129.784 223.657 131.386C218.246 133.035 212.673 134.378 206.983 135.404C201.297 136.476 195.489 137.331 189.642 138.053C183.795 138.775 177.902 139.561 171.967 140.329C166.031 141.097 160.269 141.888 154.51 142.564C142.906 143.97 131.182 144.826 119.406 145.125C107.702 145.425 95.9633 144.745 84.4037 143.098C72.8034 141.382 61.568 138.382 51.0627 134.197C40.4958 130.025 31.1021 124.309 23.4389 117.388C15.8812 110.421 10.8425 102.113 8.82876 93.2963L8.10185 89.9908L7.8955 86.7041C7.93537 85.6071 7.78002 84.5029 7.75423 83.4199C7.72843 82.3368 7.83396 81.2257 8.06845 80.1522C8.75416 75.7965 10.1641 71.5347 12.2651 67.4669C14.42 63.3509 16.9305 59.351 19.7806 55.4924C22.4592 51.6158 25.4975 47.8912 28.8733 44.3459C30.5296 42.6466 32.3294 41.0308 34.2617 39.5082C36.097 38.0946 38.1709 36.8694 40.432 35.8631C45.2816 33.8598 50.4977 32.3932 55.9239 31.5073C78.8016 27.4212 102.347 25.6093 125.968 26.1173C137.743 26.3729 149.5 27.178 161.174 28.5279C167.013 29.2156 172.825 30.0499 178.613 30.9488C184.401 31.8478 190.071 33.0048 195.874 34.101L196.264 34.1152C197.565 34.3377 198.919 34.2007 200.079 33.7292L211.103 29.2111L221.697 24.5462C228.996 21.5323 236.174 18.2353 243.37 15.0701L236.989 11.3623L228.403 48.5965L228.398 48.7438C228.315 48.9501 228.307 49.1706 228.375 49.3824C229.116 50.9509 229.575 52.5835 229.74 54.2359L229.736 54.3506C229.768 54.6225 229.928 54.8787 230.188 55.072C233.227 57.4942 236.156 59.9617 238.929 62.5546C241.656 65.161 244.175 67.8861 246.473 70.7151C251.142 76.3889 254.335 82.6676 255.879 89.2069ZM256.947 89.0981C256.27 85.7709 255.159 82.4957 253.632 79.3206C252.059 76.1572 250.197 73.0763 248.059 70.1005C245.914 67.1277 243.53 64.254 240.922 61.4957C238.374 58.7142 235.648 56.0246 232.811 53.3966L233.259 54.2327C233.258 52.329 232.941 50.4281 232.313 48.5746L232.285 49.3442L245.445 12.9485C245.725 12.1268 245.569 11.2482 245.008 10.4993C244.447 9.75032 243.526 9.18998 242.441 8.93719C241.409 8.70745 240.308 8.77254 239.351 9.11998L239.042 9.23993C231.556 12.0503 224.028 14.7935 216.604 17.6881L205.457 21.9886L194.438 26.392L198.641 26.0857C174.937 20.6708 150.405 17.8086 125.779 17.5846C101.206 17.4219 76.7886 19.789 53.1987 24.6205C46.9702 25.7992 41.0402 27.7019 35.6185 30.2612C32.8195 31.6506 30.2832 33.317 28.0757 35.2173C25.9313 37.0125 23.9739 38.9309 22.2202 40.9561C18.9749 44.8836 16.1112 48.9876 13.651 53.2366C11.043 57.4153 8.76912 61.7126 6.84138 66.1057C4.948 70.5396 3.80283 75.1469 3.43267 79.8197C3.38982 80.9987 3.34698 82.1776 3.30473 83.3402C3.26248 84.5027 3.58897 85.6787 3.67687 86.846L4.11169 90.4196L5.09889 93.7346C5.42657 94.8779 5.6452 96.0335 6.06023 97.1635L7.50293 100.495C8.41356 102.734 9.56937 104.915 10.9582 107.015L11.9182 108.689L13.0793 110.207L15.4455 113.228C17.0671 115.222 19.0423 117.048 20.8187 118.965C28.7073 126.214 38.2043 132.376 48.8698 137.167C59.5137 142.026 70.972 145.753 82.9136 148.242C107.011 153.315 132.312 152.758 156.224 149.791C162.202 149.057 168.186 148.127 174.042 147.159C179.898 146.192 185.734 145.19 191.528 144.106C203.458 142.034 214.995 138.903 225.901 134.78C231.388 132.671 236.472 130.022 241.021 126.902C245.504 123.723 249.218 119.976 252.001 115.824C254.761 111.736 256.547 107.301 257.277 102.719C258.013 98.2024 257.902 93.6173 256.947 89.0981Z" fill="white"/>
</svg>
