<svg width="205" height="130" viewBox="0 0 205 130" fill="none" xmlns="http://www.w3.org/2000/svg">
<path d="M202.857 59.452C204.78 51.7192 203.421 43.6775 199.006 36.6709C196.755 33.2814 193.782 30.2529 190.229 27.7299C186.614 25.2872 182.617 23.2551 178.346 21.6883C174.072 20.0803 169.659 18.7341 165.145 17.6605C160.634 16.5465 156.02 15.6181 151.371 14.804C146.722 13.9899 142.038 13.1186 137.32 12.2617C132.602 11.4047 128.022 10.5334 123.442 9.76217C114.215 8.16954 104.875 7.05331 95.4786 6.42C86.1392 5.78802 76.7436 6.00836 67.463 7.07701C58.148 8.20531 49.0871 10.4626 40.575 13.7756C32.014 17.0756 24.3452 21.7577 18.0237 27.5442C11.7851 33.3737 7.51945 40.4521 5.65517 48.0686L4.97864 50.9251L4.71843 53.7817C4.71843 54.7386 4.5623 55.6956 4.51026 56.6382C4.45822 57.5809 4.51026 58.5521 4.66639 59.4948C5.08765 63.3108 6.09008 67.0681 7.65009 70.6782C9.25175 74.3319 11.1408 77.8959 13.3053 81.3474C15.3322 84.8092 17.6508 88.1501 20.2441 91.3454C21.5177 92.8781 22.9083 94.3426 24.4074 95.7302C25.8323 97.0197 27.4532 98.1527 29.2299 99.1009C33.0452 101 37.1688 102.442 41.477 103.386C59.6311 107.67 78.3841 109.993 97.2654 110.299C106.677 110.449 116.092 110.119 125.454 109.313C130.138 108.899 134.805 108.356 139.454 107.756C144.103 107.156 148.665 106.328 153.331 105.557L153.644 105.557C154.689 105.404 155.767 105.566 156.679 106.014L165.353 110.299L173.68 114.698C179.421 117.554 185.059 120.654 190.714 123.639L185.51 126.667L179.734 93.9591L179.734 93.8306C179.673 93.6482 179.673 93.4559 179.734 93.2735C180.371 91.9306 180.785 90.523 180.965 89.0887L180.965 88.9887C180.999 88.7528 181.134 88.5347 181.347 88.3746C183.845 86.3607 186.256 84.304 188.546 82.133C190.799 79.9488 192.891 77.6546 194.808 75.263C198.702 70.4682 201.435 65.0996 202.857 59.452ZM203.707 59.5805C203.07 62.4575 202.088 65.2755 200.776 67.993C199.427 70.699 197.851 73.3239 196.057 75.8486C194.257 78.3703 192.27 80.7982 190.107 83.1185C187.991 85.4609 185.736 87.7175 183.394 89.9171L183.776 89.203C183.72 90.8612 183.411 92.5072 182.856 94.1019L182.856 93.4307L192.31 125.553C192.511 126.277 192.36 127.038 191.89 127.672C191.421 128.307 190.669 128.766 189.795 128.952C188.963 129.119 188.086 129.028 187.332 128.695L187.089 128.581C181.191 125.895 175.258 123.267 169.412 120.511L160.634 116.412L151.961 112.227L155.309 112.627C136.219 116.593 116.542 118.31 96.8664 117.726C77.2357 117.089 57.8017 114.254 39.1004 109.299C34.1599 108.075 29.4788 106.23 25.2227 103.829C23.0275 102.53 21.0501 100.998 19.3421 99.2723C17.6815 97.6405 16.1737 95.9074 14.8318 94.0877C12.3538 90.5635 10.1856 86.8978 8.34398 83.1185C6.38224 79.3957 4.69081 75.5802 3.27862 71.6923C1.89505 67.7698 1.11412 63.72 0.9541 59.6376C0.9541 58.6093 0.9541 57.5809 0.9541 56.5668C0.9541 55.5527 1.249 54.5387 1.35308 53.5246L1.80411 50.4252L2.68881 47.5687C2.98372 46.5832 3.19188 45.5834 3.55617 44.6121L4.80516 41.7556C5.59747 39.8343 6.58393 37.971 7.75418 36.1853L8.56949 34.757L9.54093 33.4716L11.5185 30.915C12.8716 29.2296 14.5022 27.7013 15.9767 26.0874C22.4878 20.0224 30.252 14.9547 38.9096 11.119C47.552 7.22332 56.8121 4.33899 66.4222 2.54937C85.8163 -1.10702 106.008 0.178435 125.021 3.5206C129.774 4.34901 134.527 5.3488 139.176 6.37716C143.825 7.40552 148.457 8.46244 153.054 9.59078C162.522 11.7734 171.646 14.8655 180.237 18.8032C184.558 20.8141 188.541 23.2822 192.085 26.1445C195.573 29.0559 198.43 32.4373 200.533 36.1425C202.619 39.7908 203.916 43.7106 204.367 47.7258C204.824 51.6832 204.602 55.674 203.707 59.5805Z" fill="white"/>
</svg>
